<?xml version="1.0" encoding="UTF-8"?>
<svg width="20px" height="18px" viewBox="0 0 20 18" version="1.1" xmlns="http://www.w3.org/2000/svg" xmlns:xlink="http://www.w3.org/1999/xlink">
    <title>alert</title>
    <g id="页面-1" stroke="none" stroke-width="1" fill="none" fill-rule="evenodd">
        <g id="1" transform="translate(-1556.000000, -211.000000)" fill="#555555" fill-rule="nonzero">
            <g id="alert" transform="translate(1556.000000, 211.000000)">
                <path d="M10,4.0909091 C13.2216667,4.0909091 15.8333333,6.65509092 15.8333333,9.81818183 L15.8333333,15.5454545 L4.16666667,15.5454545 L4.16666667,9.81818183 C4.16666667,6.65509092 6.77833335,4.0909091 10,4.0909091 Z M3.33333333,16.3636364 L16.6666667,16.3636364 C17.1269167,16.3636364 17.5,16.7299364 17.5,17.1818182 C17.5,17.6337 17.1269167,18 16.6666667,18 L3.33333333,18 C2.87308332,18 2.50000001,17.6337 2.50000001,17.1818182 C2.50000001,16.7299363 2.87308334,16.3636364 3.33333333,16.3636364 Z M10,0 C10.46025,0 10.8333333,0.3663 10.8333333,0.818181826 L10.8333333,2.45454546 C10.8333333,2.90642729 10.46025,3.27272727 10,3.27272727 C9.53975002,3.27272727 9.16666667,2.90642727 9.16666667,2.45454546 L9.16666667,0.818181826 C9.16666667,0.3663 9.53975,0 10,0 Z M17.1129167,3.03308183 C17.4384167,3.35258183 17.4384167,3.87065456 17.1129167,4.19015454 L15.9344167,5.34722727 C15.609,5.6668091 15.0813333,5.6668091 14.7559167,5.34722727 C14.4305,5.02772727 14.4305,4.50965454 14.7559167,4.19015454 L15.9344167,3.03308183 C16.2598333,2.71358183 16.7875,2.71358183 17.1129167,3.03308183 Z M20,9.81818183 C20,10.2700637 19.6269167,10.6363636 19.1666667,10.6363636 L17.5,10.6363636 C17.03975,10.6363636 16.6666667,10.2700636 16.6666667,9.81818183 C16.6666667,9.36630002 17.03975,9 17.5,9 L19.1666667,9 C19.6269167,9 20,9.3663 20,9.81818183 Z M3.33333333,9.81818183 C3.33333333,10.2700637 2.96025,10.6363636 2.5,10.6363636 L0.833333342,10.6363636 C0.373083333,10.6363636 0,10.2700636 0,9.81818183 C0,9.36630002 0.373083333,9 0.833333342,9 L2.5,9 C2.96025001,9 3.33333333,9.3663 3.33333333,9.81818183 Z M2.95333334,3.03308183 C3.27875,2.71358183 3.80641667,2.71358183 4.13183334,3.03308183 L5.31033334,4.19015454 C5.63575001,4.50965454 5.63575001,5.02772727 5.31033334,5.34722727 C4.98491668,5.6668091 4.45725001,5.6668091 4.13183334,5.34722727 L2.95333334,4.19015454 C2.62783333,3.87065454 2.62783333,3.35258181 2.95333334,3.03308183 L2.95333334,3.03308183 Z" id="形状"></path>
            </g>
        </g>
    </g>
</svg>