<?xml version="1.0" encoding="UTF-8"?>
<svg width="20px" height="21px" viewBox="0 0 20 21" version="1.1" xmlns="http://www.w3.org/2000/svg" xmlns:xlink="http://www.w3.org/1999/xlink">
    <title>caidanguanli</title>
    <g id="页面-1" stroke="none" stroke-width="1" fill="none" fill-rule="evenodd">
        <g id="1" transform="translate(-1143.000000, -730.000000)" fill="#555555" fill-rule="nonzero">
            <g id="caidanguanli" transform="translate(1143.000000, 730.500000)">
                <path d="M19.9241636,16.7116069 L18.8724065,15.990556 C18.8724065,15.8553817 18.9182721,15.7202073 18.9182721,15.5398537 C18.9182721,15.3595 18.9182721,15.224649 18.8724065,15.0891312 L19.8327556,14.3232444 C19.9241636,14.232906 19.9241636,14.1432545 19.878298,14.0528958 L18.9637942,12.4762864 C18.9182721,12.4311273 18.8268843,12.3859479 18.6896512,12.4311273 L17.5465266,12.8818296 C17.3179057,12.7017992 17.0434192,12.5663016 16.7689327,12.4311273 L16.5861572,11.2596973 C16.6316793,11.1248665 16.4947897,11.0348715 16.4030585,11.0348715 L14.5737075,11.0348715 C14.48234,11.0348715 14.3450866,11.1248665 14.3450866,11.2148615 L14.1623313,12.4311273 C13.8878448,12.5211222 13.659224,12.7014759 13.3850607,12.8818296 L12.2871148,12.4311273 C12.1502251,12.3859479 12.0588374,12.4311273 11.9671061,12.5211222 L11.0526226,14.0980751 C11.006757,14.1432545 11.0526226,14.2780853 11.1443538,14.3684238 L12.1043595,15.0891514 C12.1043595,15.2246692 12.0588374,15.3595 12.0588374,15.5398537 C12.0588374,15.7202073 12.0588374,15.8553817 12.1043595,15.990556 L11.1443336,16.7567862 C11.0526024,16.8467812 11.0526024,16.9367964 11.098468,17.0267914 L12.0129717,18.6037443 C12.0588374,18.6489236 12.1498816,18.6937392 12.2871148,18.6489236 L13.4302394,18.1982213 C13.6588603,18.3782113 13.9333468,18.5133856 14.2078333,18.6489236 L14.3906087,19.8199898 C14.3906087,19.9103485 14.48234,20 14.6192296,20 L16.4485806,20 C16.5399481,20 16.6772015,19.9099848 16.6772015,19.8199898 L16.8599567,18.6489236 C17.1344432,18.5133856 17.4085863,18.378575 17.6372071,18.1982213 L18.7803318,18.6489236 C18.872063,18.6937392 19.0089728,18.6489236 19.0548385,18.5585649 L19.969322,16.9819555 C20.0158746,16.8916171 20.0158746,16.7567862 19.9241636,16.7116069 L19.9241636,16.7116069 Z M15.4885547,17.1171501 C14.6195731,17.1171501 13.8878448,16.3960789 13.8878448,15.5401972 C13.8878448,14.6843154 14.6195731,13.9635676 15.4885547,13.9635676 C16.3575363,13.9635676 17.0892848,14.6842952 17.0892848,15.5401972 C17.0892848,16.3960991 16.3575363,17.1171501 15.4885547,17.1171501 L15.4885547,17.1171501 Z M9.65533782,15.5177692 C9.65533782,12.4704268 12.125393,10.0003536 15.1726881,10.0003536 C15.406825,10.0003536 15.6361531,10.0196498 15.8623494,10.0479374 L15.8623494,1.03451794 C15.8623494,0.463108423 15.3992481,0 14.8278474,0 L1.03450192,0 C0.463101252,0 0,0.463108423 0,1.03451794 L0,18.2764971 C0,18.8479067 0.463101252,19.3110151 1.03450192,19.3110151 L11.1729643,19.3110151 C10.2346589,18.3219998 9.65535802,16.9888658 9.65535802,15.5177692 L9.65533782,15.5177692 Z M2.22416314,5 L12.948525,5 C13.2246674,5 13.448525,5.22385763 13.448525,5.5 C13.448525,5.77614237 13.2246674,6 12.948525,6 L2.22416314,6 C1.94802076,6 1.72416314,5.77614237 1.72416314,5.5 C1.72416314,5.22385763 1.94802076,5 2.22416314,5 Z M2.22416314,9 L8.22416314,9 C8.50030551,9 8.72416314,9.22385763 8.72416314,9.5 C8.72416314,9.77614237 8.50030551,10 8.22416314,10 L2.22416314,10 C1.94802076,10 1.72416314,9.77614237 1.72416314,9.5 C1.72416314,9.22385763 1.94802076,9 2.22416314,9 Z M6.22416314,15 L2.22416314,15 C1.94802076,15 1.72416314,14.7761424 1.72416314,14.5 C1.72416314,14.2238576 1.94802076,14 2.22416314,14 L6.22416314,14 C6.50030551,14 6.72416314,14.2238576 6.72416314,14.5 C6.72416314,14.7761424 6.50030551,15 6.22416314,15 Z" id="形状"></path>
            </g>
        </g>
    </g>
</svg>