<?xml version="1.0" encoding="UTF-8"?>
<svg width="20px" height="21px" viewBox="0 0 20 21" version="1.1" xmlns="http://www.w3.org/2000/svg" xmlns:xlink="http://www.w3.org/1999/xlink">
    <title>canshu</title>
    <g id="页面-1" stroke="none" stroke-width="1" fill="none" fill-rule="evenodd">
        <g id="1" transform="translate(-1143.000000, -494.000000)" fill="#555555" fill-rule="nonzero">
            <g id="canshu" transform="translate(1143.000000, 494.875000)">
                <path d="M3.33349609,0 L16.6665039,0 C18.507543,0 20,1.49245704 20,3.33349609 L20,16.6665039 C20,18.507543 18.507543,20 16.6665039,20 L3.33349609,20 C2.44939796,20 1.60151019,19.6487934 0.976358401,19.0236416 C0.351206616,18.3984898 0,17.550602 0,16.6665039 L0,3.33349609 C0,1.49245704 1.49245704,0 3.33349609,0 Z M10.1834961,13.3334961 L3.80949219,13.3334961 C3.50699108,13.3261728 3.22428113,13.4833686 3.07087695,13.7441898 C2.91747277,14.005011 2.91747277,14.328485 3.07087695,14.5893063 C3.22428113,14.8501275 3.50699108,15.0073233 3.80949219,15 L10.1825,15 C10.5342073,16.0013982 11.4798847,16.6715687 12.54125,16.6715687 C13.6026153,16.6715687 14.5482927,16.0013982 14.9,15 L16.3109961,15 C16.6134972,15.0073233 16.8962072,14.8501275 17.0496113,14.5893063 C17.2030155,14.328485 17.2030155,14.005011 17.0496113,13.7441898 C16.8962072,13.4833686 16.6134972,13.3261728 16.3109961,13.3334961 L14.9,13.3334961 C14.5474572,12.3335597 13.6025098,11.6647581 12.5422461,11.6647581 C11.4819824,11.6647581 10.537035,12.3335597 10.1844922,13.3334961 L10.1834961,13.3334961 Z M5.14199219,5 L3.76050781,5 C3.4580067,4.99267672 3.17529675,5.14987251 3.02189257,5.41069373 C2.86848839,5.67151495 2.86848839,5.99498895 3.02189257,6.25581018 C3.17529675,6.5166314 3.4580067,6.67382719 3.76050781,6.66650391 L5.1425,6.66650391 C5.49504278,7.66644028 6.43999019,8.3352419 7.50025391,8.3352419 C8.56051763,8.3352419 9.50546503,7.66644028 9.85800781,6.66650391 L16.2580078,6.66650391 C16.7103435,6.65555327 17.0713316,6.2857202 17.0713316,5.83325195 C17.0713316,5.3807837 16.7103435,5.01095064 16.2580078,5 L9.85800781,5 C9.50546503,4.00006363 8.56051763,3.331262 7.50025391,3.331262 C6.43999019,3.331262 5.49504278,4.00006363 5.1425,5 L5.14199219,5 Z" id="形状"></path>
            </g>
        </g>
    </g>
</svg>