<?xml version="1.0" encoding="UTF-8"?>
<svg width="18px" height="21px" viewBox="0 0 18 21" version="1.1" xmlns="http://www.w3.org/2000/svg" xmlns:xlink="http://www.w3.org/1999/xlink">
    <title>chanpinliebiao-2</title>
    <g id="页面-1" stroke="none" stroke-width="1" fill="none" fill-rule="evenodd">
        <g id="1" transform="translate(-1144.000000, -302.000000)" fill="#555555" fill-rule="nonzero">
            <g id="chanpinliebiao-2" transform="translate(1144.000000, 302.375000)">
                <path d="M3.85783522,1.20706304 L3.85783522,1.81128432 C3.85783522,2.81004276 4.72051696,3.62118913 5.78675283,3.62118913 L12.2132472,3.62118913 C13.279483,3.62118913 14.1421648,2.81004276 14.1421648,1.80990481 L14.1421648,1.20706304 L16.0710824,1.20706304 C17.1373183,1.20706304 18,2.01820941 18,3.01834736 L18,18.1900952 C18,19.1902331 17.1359335,20 16.0710824,20 L1.92891761,20 C0.862681745,20 0,19.1902331 0,18.1900952 L0,3.01834736 C0,2.01820941 0.864066467,1.20706304 1.92891761,1.20706304 L3.85783522,1.20706304 Z M9.00069236,12.4155055 L4.84652666,12.4155055 C4.51212696,12.4153945 4.22543541,12.6534033 4.16524348,12.9811008 L4.15416567,13.1052559 L4.15416567,13.1466409 C4.15405422,13.4797797 4.39296385,13.7653903 4.72190168,13.8253552 L4.84652666,13.8363913 L9.00069236,13.8363913 C9.33509205,13.8365023 9.62178361,13.5984935 9.68197554,13.270796 L9.69305331,13.1466409 L9.69305331,13.1052559 C9.69305331,12.7243173 9.38307276,12.4155055 9.00069236,12.4155055 Z M13.1548581,8.27700369 L4.84652666,8.27700369 C4.51212696,8.27689266 4.22543541,8.51490145 4.16524348,8.84259898 L4.15416567,8.96675404 L4.15416567,9.00813905 C4.15405422,9.34127785 4.39296385,9.62688839 4.72190168,9.68685336 L4.84652666,9.6978894 L13.1548581,9.6978894 C13.4892578,9.69800043 13.7759493,9.45999164 13.8361412,9.13229411 L13.847219,9.00813905 L13.847219,8.96675404 C13.847219,8.58581546 13.5372385,8.27700369 13.1548581,8.27700369 Z M11.5721209,0 C12.2824833,0 12.8585276,0.540764243 12.8585276,1.20706304 C12.8585276,1.87336184 12.2824833,2.41412609 11.5721209,2.41412609 L6.42926379,2.41412609 C5.71890145,2.41412609 5.14285714,1.87336184 5.14285714,1.20706304 C5.14285714,0.540764243 5.71890145,0 6.42926379,0 L11.5721209,0 Z" id="形状"></path>
            </g>
        </g>
    </g>
</svg>