<?xml version="1.0" encoding="UTF-8"?>
<svg width="20px" height="19px" viewBox="0 0 20 19" version="1.1" xmlns="http://www.w3.org/2000/svg" xmlns:xlink="http://www.w3.org/1999/xlink">
    <title>litihuafangkong-gaojingxinxi</title>
    <g id="页面-1" stroke="none" stroke-width="1" fill="none" fill-rule="evenodd">
        <g id="1" transform="translate(-1556.000000, -400.000000)" fill="#555555" fill-rule="nonzero">
            <g id="litihuafangkong-gaojingxinxi" transform="translate(1556.000000, 400.000000)">
                <path d="M11.1663462,3.98191166 C14.1074415,4.33376803 16.380579,6.74883439 16.6735219,9.73253508 C16.2995945,9.58245264 15.8934104,9.49999999 15.4688375,9.49999999 C13.6618558,9.49999999 12.1875001,10.9937969 12.1875001,12.825 C12.1875001,13.6859752 12.5133567,14.4723 13.0464386,15.0638745 C11.6345754,15.8174174 10.6333155,17.0339706 10.3747342,18.4456824 L7.76250007,18.4393331 L2.985577,18.4393331 C2.94119707,18.4409359 2.89801883,18.4243078 2.86555469,18.3931123 C2.83309055,18.3619167 2.81400406,18.318713 2.81250007,18.2730193 L2.81250007,18.2730193 L2.81250007,16.9187497 C2.81400406,16.873056 2.83309055,16.8298523 2.86555469,16.7986567 C2.89801883,16.7674611 2.94119707,16.7508331 2.985577,16.7524359 L2.985577,16.7524359 L3.92019239,16.7524359 L3.92019239,10.2899567 C3.96694919,7.05414943 6.33641617,4.35543892 9.45865392,3.98191166 L9.45865392,3.98191166 Z M15.4688125,10.45 C16.7596385,10.45 17.8125001,11.5169978 17.8125001,12.825 C17.8125001,14.1331287 16.7596385,15.2 15.4688125,15.2 C14.1781113,15.2 13.1250001,14.1331287 13.1250001,12.825 C13.1250001,11.5169978 14.1781113,10.45 15.4688125,10.45 Z M15.4687501,15.2 C17.7510161,15.2 19.6100668,16.8892865 19.6875001,19 L11.2500001,19 C11.3275636,16.8892865 13.186484,15.2 15.4687501,15.2 Z M19.21875,8.55000001 C19.6502344,8.55000001 20,8.89798501 20,9.32727275 C20,9.75656048 19.6502344,10.1045455 19.21875,10.1045455 L17.65625,10.1045455 C17.2247656,10.1045455 16.875,9.75656047 16.875,9.32727275 C16.875,8.89798503 17.2247656,8.55000001 17.65625,8.55000001 L19.21875,8.55000001 Z M2.34375001,8.55000002 C2.77523439,8.55000002 3.125,8.89798502 3.125,9.32727275 C3.125,9.75656049 2.77523437,10.1045455 2.34375001,10.1045455 L0.781250008,10.1045455 C0.349765625,10.1045455 7.37367944e-11,9.75656047 7.37367944e-11,9.32727275 C7.37367944e-11,8.89798503 0.349765625,8.55000002 0.781250008,8.55000002 L2.34375001,8.55000002 Z M17.4384961,2.88142774 C17.7436524,3.18495274 17.7436524,3.67712184 17.4384961,3.98064682 L16.3336523,5.07986592 C16.0285742,5.38346865 15.5338867,5.38346865 15.2288086,5.07986592 C14.9237305,4.77634091 14.9237305,4.28417182 15.2288086,3.98064682 L16.3336523,2.88142774 C16.6387305,2.57790274 17.133418,2.57790274 17.4384961,2.88142774 Z M4.14621095,2.88142774 L5.2510547,3.98064682 C5.55613282,4.28417182 5.55613282,4.77634091 5.2510547,5.07986591 C4.94597657,5.38346865 4.45128907,5.38346865 4.14621095,5.07986591 L3.04136719,3.98064682 C2.73621094,3.67712182 2.73621094,3.18495272 3.04136719,2.88142774 C3.34644532,2.57790274 3.84113282,2.57790274 4.14621095,2.88142774 Z M10.3125001,0 C10.7439845,0 11.0937501,0.347985001 11.0937501,0.777272736 L11.0937501,2.33181819 C11.0937501,2.76110593 10.7439845,3.10909091 10.3125001,3.10909091 C9.88101572,3.10909091 9.53125008,2.76110591 9.53125008,2.33181819 L9.53125008,0.777272736 C9.53125008,0.347985001 9.8810157,0 10.3125001,0 Z" id="形状"></path>
            </g>
        </g>
    </g>
</svg>