<?xml version="1.0" encoding="UTF-8"?>
<svg width="13px" height="20px" viewBox="0 0 13 20" version="1.1" xmlns="http://www.w3.org/2000/svg" xmlns:xlink="http://www.w3.org/1999/xlink">
    <title>guize</title>
    <g id="页面-1" stroke="none" stroke-width="1" fill="none" fill-rule="evenodd">
        <g id="1" transform="translate(-1559.000000, -304.000000)" fill="#555555" fill-rule="nonzero">
            <g id="guize" transform="translate(1559.000000, 304.000000)">
                <path d="M12.9682133,6.88342514 C12.6325348,3.44549046 9.86268913,0.776481228 6.58910908,0.731261485 C2.97976389,0.68604176 0,3.76212359 0,7.56200614 C0,10.0500414 1.25898924,12.2666633 3.27349338,13.4881661 L3.39942697,14.8904528 C3.44137595,15.1618662 3.65129416,15.3428402 3.90307466,15.3428402 L9.06522526,15.3428402 C9.31700578,15.3428402 9.52683732,15.1166465 9.56878629,14.8904528 L9.69471989,13.4881661 C11.9610045,12.1762239 13.2200805,9.64296883 12.9682133,6.88342514 L12.9682133,6.88342514 Z M3.23154441,7.42634693 C3.23154441,7.74298006 2.97976389,7.96917372 2.7278967,7.96917372 C2.47611618,7.96917372 2.22424899,7.74298006 2.22424899,7.42634693 C2.22424899,7.24537299 2.22424899,7.1097138 2.26628464,6.92873988 C2.30823361,6.61210675 2.5601008,6.43103781 2.85383029,6.43103781 C3.14764646,6.47635254 3.357478,6.74786094 3.31544235,7.01917933 C3.27349338,7.20024827 3.23154441,7.29059273 3.23154441,7.42634693 L3.23154441,7.42634693 Z M6.50512446,3.98831725 C5.28799752,3.98831725 4.19689083,4.66680323 3.65129416,5.79777156 C3.56730954,5.97874549 3.39942697,6.06927994 3.18950876,6.06927994 C3.10569748,6.06927994 3.02171286,6.06927994 2.93781491,6.02406022 C2.68594772,5.88830602 2.60204978,5.57157789 2.7278967,5.30025949 C3.48341159,3.85265804 4.9102834,2.94788339 6.50512446,2.94788339 C6.79894062,2.94788339 7.00877216,3.17398205 7.00877216,3.49061518 C7.00877216,3.80734331 6.79894062,3.98831725 6.50512446,3.98831725 Z M3.60934519,16.2023001 C3.56730954,16.383274 3.56730954,16.5189332 3.56730954,16.6999071 C3.56730954,18.3737023 4.86833443,19.7307692 6.46317548,19.7307692 C8.05792986,19.7307692 9.35895475,18.3737022 9.35895475,16.6999071 C9.35895475,16.5189332 9.35895475,16.3380543 9.31700578,16.2023001 L3.60934519,16.2023001 Z" id="形状"></path>
            </g>
        </g>
    </g>
</svg>