<?xml version="1.0" encoding="UTF-8"?>
<svg width="19px" height="20px" viewBox="0 0 19 20" version="1.1" xmlns="http://www.w3.org/2000/svg" xmlns:xlink="http://www.w3.org/1999/xlink">
    <title>IPbaimingdanshezhi</title>
    <g id="页面-1" stroke="none" stroke-width="1" fill="none" fill-rule="evenodd">
        <g id="1" transform="translate(-1144.000000, -635.000000)" fill="#555555" fill-rule="nonzero">
            <g id="IPbaimingdanshezhi" transform="translate(1144.000000, 635.250000)">
                <path d="M11.4467213,6.65 L10.45,6.65 L10.45,8.55 L11.4467213,8.55 C11.7581967,8.55 12.007377,8.43125 12.1319672,8.3125 C12.2877049,8.15416667 12.35,7.91666667 12.35,7.56041667 C12.35,7.20416667 12.2565574,6.96666667 12.1319672,6.84791667 C11.9762295,6.65 11.7581967,6.65 11.4467213,6.65 L11.4467213,6.65 Z" id="路径"></path>
                <path d="M17,0 C18.1045695,-2.02906125e-16 19,0.8954305 19,2 L19,17 C19,18.1045695 18.1045695,19 17,19 L2,19 C0.8954305,19 -1.07867225e-13,18.1045695 -1.08002496e-13,17 L-1.08002496e-13,2 C-1.08137767e-13,0.8954305 0.8954305,2.02906125e-16 2,0 L17,0 Z M6.6,5.51 L5.5075,5.51 L5.5075,12.35 L6.6,12.35 L6.6,5.51 Z M11.6375,5.51 L8.74,5.51 L8.74,12.35 L10.0225,12.35 L10.0225,9.7375 L11.6375,9.7375 C13.2525,9.7375 14.1075,9.025 14.06,7.6 C14.06,6.2225 13.2525,5.51 11.6375,5.51 L11.6375,5.51 Z" id="形状"></path>
            </g>
        </g>
    </g>
</svg>