<?xml version="1.0" encoding="UTF-8"?>
<svg width="20px" height="20px" viewBox="0 0 20 20" version="1.1" xmlns="http://www.w3.org/2000/svg" xmlns:xlink="http://www.w3.org/1999/xlink">
    <title>jiaoseshouquan</title>
    <g id="页面-1" stroke="none" stroke-width="1" fill="none" fill-rule="evenodd">
        <g id="1" transform="translate(-1143.000000, -825.000000)" fill="#555555" fill-rule="nonzero">
            <g id="jiaoseshouquan" transform="translate(1143.000000, 825.750000)">
                <path d="M14.5,8 C17.5244671,8 20,10.4755329 20,13.5 C20,16.5244671 17.5244671,19 14.5,19 C11.464874,18.9920058 9.00799419,16.535126 9,13.5 C9,10.4728682 11.4728682,8 14.5,8 Z M14.0629845,16.3859012 L17.7882752,12.3301841 C18.0414244,12.0317345 18.0414244,11.5973837 17.7882752,11.2989341 C17.6656977,11.1683624 17.495155,11.09375 17.3139535,11.09375 C17.1354167,11.09375 16.9622093,11.1683624 16.8422965,11.2989341 L13.5593508,14.8057171 L11.8539244,13.0176841 C11.7313469,12.8871124 11.5608043,12.8125 11.3796027,12.8125 C11.1984012,12.8125 11.0278585,12.8871124 10.905281,13.0176841 C10.6521318,13.3161337 10.6521318,13.7531492 10.905281,14.0489341 L13.1143411,16.3859012 C13.2369186,16.5164729 13.4074612,16.5910853 13.5886628,16.5910853 C13.7698643,16.59375 13.940407,16.5191376 14.0629845,16.3859012 L14.0629845,16.3859012 Z" id="形状"></path>
                <path d="M8.45330621,13.2074963 L8.45330621,13.2049475 C8.45330621,11.9586207 8.83153611,10.7658171 9.53774161,9.74632684 C9.53245168,9.74377811 9.52716175,9.74377811 9.51922686,9.74122939 C9.52716175,9.73868066 9.53774161,9.73613193 9.5456765,9.73103448 C9.7837233,9.38950525 10.0587996,9.06581709 10.3682604,8.76761619 C10.9475076,8.20944528 11.6140387,7.77106447 12.3361139,7.46011994 C12.7593082,6.73628186 13,5.90029985 13,5.0107946 C13,2.24287856 10.6724313,0 7.8,0 C4.92756867,0 2.6,2.24287856 2.6,5.0107946 C2.6,7.1976012 4.05473042,9.05052474 6.08077314,9.73613193 C2.62115972,10.4905547 0.0290946083,13.4827586 0,17 L9.79694812,17 C8.9293998,15.9295352 8.45330621,14.5991004 8.45330621,13.2074963 Z" id="路径"></path>
            </g>
        </g>
    </g>
</svg>