<?xml version="1.0" encoding="UTF-8"?>
<svg width="20px" height="18px" viewBox="0 0 20 18" version="1.1" xmlns="http://www.w3.org/2000/svg" xmlns:xlink="http://www.w3.org/1999/xlink">
    <title>mingling</title>
    <g id="页面-1" stroke="none" stroke-width="1" fill="none" fill-rule="evenodd">
        <g id="1" transform="translate(-1556.000000, -164.000000)">
            <g id="mingling" transform="translate(1556.000000, 164.000000)">
                <path d="M0,5 L20,5 L20,17 C20,17.5522847 19.5522847,18 19,18 L1,18 C0.44771525,18 6.76353751e-17,17.5522847 0,17 L0,5 L0,5 Z" id="矩形" fill="#555555"></path>
                <path d="M4.92142857,8 L4,8.966 L5.78999999,10.832 L4.00142857,12.7115 L4.92285714,13.679 L7.63,10.8305 L4.92142857,8 Z M9.71428571,12.5 L14,12.5 L14,14 L9.71428571,14 L9.71428571,12.5 Z" id="形状" fill="#FFFFFF" fill-rule="nonzero"></path>
                <path d="M1.42857142,0 L18.5714286,0 C18.9503093,0 19.313672,0.147506945 19.5815811,0.410071003 C19.8494902,0.672635061 20,1.02874835 20,1.40007 L20,4 L0,4 L0,1.40007 C0,0.62683269 0.639593212,0 1.42857142,0 Z" id="路径" fill="#555555" fill-rule="nonzero"></path>
            </g>
        </g>
    </g>
</svg>