<?xml version="1.0" encoding="UTF-8"?>
<svg width="20px" height="21px" viewBox="0 0 20 21" version="1.1" xmlns="http://www.w3.org/2000/svg" xmlns:xlink="http://www.w3.org/1999/xlink">
    <title>mobanguanli</title>
    <g id="页面-1" stroke="none" stroke-width="1" fill="none" fill-rule="evenodd">
        <g id="1" transform="translate(-1143.000000, -446.000000)" fill="#555555" fill-rule="nonzero">
            <g id="mobanguanli" transform="translate(1143.000000, 446.750000)">
                <path d="M7.5,9.37 L1.88,9.37 C0.88,9.37 0,8.5 0,7.5 L0,1.87 C0,0.87 0.88,0 1.88,0 L7.5,0 C8.5,0 9.38,0.87 9.38,1.88 L9.38,7.5 C9.38,8.5 8.5,9.37 7.5,9.37 Z M7.5,20 L1.88,20 C0.88,20 0,19.12 0,18.12 L0,12.5 C0,11.5 0.88,10.62 1.88,10.62 L7.5,10.62 C8.5,10.62 9.38,11.5 9.38,12.5 L9.38,18 C9.38,19.12 8.5,20 7.5,20 Z M18.12,9.37 L12.5,9.37 C11.5,9.37 10.62,8.49 10.62,7.49 L10.62,1.87 C10.62,0.87 11.5,0 12.5,0 L18,0 C19.12,0 20,0.87 20,1.88 L20,7.5 C20,8.5 19.12,9.37 18.12,9.37 Z M18.85,15.66 C18.87,15.51 18.89,15.36 18.89,15.21 C18.89,15.04 18.87,14.89 18.85,14.74 L19.86,13.97 C19.95,13.9 19.97,13.78 19.92,13.67 L18.96,12.04 C18.9011687,11.9339486 18.7734412,11.8871152 18.66,11.93 L17.46,12.4 C17.2103465,12.2106328 16.9382935,12.0527749 16.65,11.93 L16.46,10.69 C16.46,10.62 16.37,10.52 16.24,10.52 L14.33,10.52 C14.2105918,10.5249054 14.1107126,10.6122997 14.09,10.73 L13.9,11.97 C13.6,12.08 13.34,12.25 13.09,12.44 L11.91,11.95 C11.7965588,11.9071152 11.6688313,11.9539486 11.61,12.06 L10.65,13.69 C10.59,13.78 10.61,13.91 10.71,13.99 L11.72,14.76 C11.7,14.91 11.68,15.06 11.68,15.23 C11.68,15.38 11.7,15.55 11.72,15.68 L10.71,16.45 C10.62,16.52 10.6,16.64 10.65,16.75 L11.61,18.36 C11.67,18.45 11.8,18.51 11.91,18.45 L13.11,17.98 C13.35,18.17 13.63,18.32 13.92,18.45 L14.11,19.69 C14.1280944,19.8091552 14.2294974,19.8978828 14.35,19.9 L16.26,19.9 C16.3794082,19.8950946 16.4792874,19.8077003 16.5,19.69 L16.69,18.45 C16.99,18.34 17.25,18.17 17.5,17.98 L18.7,18.45 C18.81,18.49 18.94,18.45 19,18.36 L19.96,16.75 C20.02,16.66 20,16.53 19.9,16.45 L18.85,15.66 L18.85,15.66 Z M15.29,16.84 C14.37,16.84 13.62,16.11 13.62,15.21 C13.62,14.31 14.37,13.56 15.29,13.56 C15.7304898,13.5565783 16.1542158,13.7286777 16.4675692,14.0382784 C16.7809227,14.3478791 16.9581146,14.769501 16.96,15.21 C16.96,16.13 16.21,16.84 15.29,16.84 Z" id="形状"></path>
            </g>
        </g>
    </g>
</svg>