<?xml version="1.0" encoding="UTF-8"?>
<svg width="20px" height="21px" viewBox="0 0 20 21" version="1.1" xmlns="http://www.w3.org/2000/svg" xmlns:xlink="http://www.w3.org/1999/xlink">
    <title>-mobanpeizhi</title>
    <g id="页面-1" stroke="none" stroke-width="1" fill="none" fill-rule="evenodd">
        <g id="1" transform="translate(-1143.000000, -254.000000)" fill="#555555" fill-rule="nonzero">
            <g id="-mobanpeizhi" transform="translate(1143.000000, 254.250000)">
                <path d="M19.0000494,20 L14.9999647,20 C14.3999591,20 13.9999788,19.5999146 13.9999788,19.0000159 L13.9999788,12.0000564 C13.9999788,11.4000166 14.3999591,10.9999665 14.9999647,10.9999665 L19.0000141,10.9999665 C19.5999139,10.9999665 20,11.4000519 20,12.0000564 L20,19.0000511 C20,19.5999499 19.5999492,20 19.0000494,20 Z M19.0000494,9.99994707 L7.99995766,9.99994707 C7.39995202,9.99994707 7.00000706,9.60000281 7.00000706,9 L7.00000706,0.999984113 C7.00000706,0.399979536 7.39995202,0 7.99995766,0 L19.0000071,0 C19.5999139,0 20.0000071,0.399979536 20.0000071,0.999984113 L20.0000071,9 C20.0000071,9.60000281 19.5999492,9.99994707 19.0000494,9.99994707 Z M5.00003528,20 L0.999985897,20 C0.399944968,20 0,19.5999146 0,19.0000159 L0,0.999984113 C0,0.399979536 0.399944968,0 0.999985897,0 L5.00003528,0 C5.60004092,0 6.00002116,0.399979536 6.00002116,0.999984113 L6.00002116,19.0000159 C6.00002116,19.5999499 5.60000565,20 5.00003528,20 Z M7.99995766,10.9999312 L12.0000423,10.9999312 C12.5999422,10.9999312 12.9999929,11.4000166 12.9999929,12.0000212 L12.9999929,19.0000159 C12.9999929,19.5999146 12.5999069,20 12.0000423,20 L7.99995766,20 C7.39995202,20 7.00000706,19.5999146 7.00000706,19.0000159 L7.00000706,12.0000564 C7.00000706,11.4000166 7.49996473,10.9999312 7.99995766,10.9999312 Z" id="形状"></path>
            </g>
        </g>
    </g>
</svg>