<?xml version="1.0" encoding="UTF-8"?>
<svg width="20px" height="21px" viewBox="0 0 20 21" version="1.1" xmlns="http://www.w3.org/2000/svg" xmlns:xlink="http://www.w3.org/1999/xlink">
    <title>shebeiliebiao备份 2</title>
    <g id="页面-1" stroke="none" stroke-width="1" fill="none" fill-rule="evenodd">
        <g id="1" transform="translate(-1143.000000, -350.000000)" fill="#555555" fill-rule="nonzero">
            <g id="shebeiliebiao备份-2" transform="translate(1143.000000, 350.500000)">
                <path d="M0,11.6416704 L0,8.37439141 C-6.76353751e-17,7.82210666 0.44771525,7.37439141 1,7.37439141 L19,7.37439141 C19.5522847,7.37439141 20,7.82210666 20,8.37439141 L20,11.6416704 C20,12.1939552 19.5522847,12.6416704 19,12.6416704 L1,12.6416704 C0.44771525,12.6416704 6.76353751e-17,12.1939552 0,11.6416704 Z M11.702,9.48150379 L8.297,9.48150379 L8.297,10.534558 L11.702,10.534558 L11.702,9.48150379 L11.702,9.48150379 Z M1,0 L19,0 C19.5522847,-1.01453063e-16 20,0.44771525 20,1 L20,4.26727902 C20,4.81956377 19.5522847,5.26727902 19,5.26727902 L1,5.26727902 C0.44771525,5.26727902 6.76353751e-17,4.81956377 0,4.26727902 L0,1 C-6.76353751e-17,0.44771525 0.44771525,1.01453063e-16 1,0 Z M8.297,3.16117051 L11.702,3.16117051 L11.702,2.10711238 L8.297,2.10711238 L8.297,3.16117051 Z M1,14.7317171 L19,14.7317171 C19.5522847,14.7317171 20,15.1794324 20,15.7317171 L20,19 C20,19.5522847 19.5522847,20 19,20 L1,20 C0.44771525,20 5.58162771e-16,19.5522847 0,19 L0,15.7317171 C-6.76353751e-17,15.1794324 0.44771525,14.7317171 1,14.7317171 Z M8.297,17.8928876 L11.702,17.8928876 L11.702,16.8388295 L8.297,16.8388295 L8.297,17.8928876 Z" id="形状"></path>
            </g>
        </g>
    </g>
</svg>