<?xml version="1.0" encoding="UTF-8"?>
<svg width="20px" height="21px" viewBox="0 0 20 21" version="1.1" xmlns="http://www.w3.org/2000/svg" xmlns:xlink="http://www.w3.org/1999/xlink">
    <title>shebeishuju备份 2</title>
    <g id="页面-1" stroke="none" stroke-width="1" fill="none" fill-rule="evenodd">
        <g id="1" transform="translate(-1213.000000, -398.000000)" fill="#555555" fill-rule="nonzero">
            <g id="shebeishuju备份-2" transform="translate(1213.000000, 398.625000)">
                <path d="M19,18 L1,18 C0.44771525,18 0,18.4477153 0,19 C0,19.5522847 0.44771525,20 1,20 L19,20 C19.5522847,20 20,19.5522847 20,19 C20,18.4477153 19.5522847,18 19,18 L19,18 Z" id="路径"></path>
                <path d="M3.25,7 L4.75,7 C5.58333333,7 6,7.41666667 6,8.25 L6,15.75 C6,16.5833333 5.58333333,17 4.75,17 L3.25,17 C2.41666667,17 2,16.5833333 2,15.75 L2,8.25 C2,7.41666667 2.41666667,7 3.25,7 Z" id="路径"></path>
                <path d="M9.25,0 L10.75,0 C11.5833333,0 12,0.416666667 12,1.25 L12,15.75 C12,16.5833333 11.5833333,17 10.75,17 L9.25,17 C8.41666667,17 8,16.5833333 8,15.75 L8,1.25 C8,0.416666667 8.41666667,0 9.25,0 L9.25,0 Z" id="路径"></path>
                <path d="M15.25,4 L16.75,4 C17.5833333,4 18,4.41666667 18,5.25 L18,15.75 C18,16.5833333 17.5833333,17 16.75,17 L15.25,17 C14.4166667,17 14,16.5833333 14,15.75 L14,5.25 C14,4.41666667 14.4166667,4 15.25,4 Z" id="路径"></path>
            </g>
        </g>
    </g>
</svg>