<?xml version="1.0" encoding="UTF-8"?>
<svg width="20px" height="20px" viewBox="0 0 20 20" version="1.1" xmlns="http://www.w3.org/2000/svg" xmlns:xlink="http://www.w3.org/1999/xlink">
    <title>shujuyuanpeizhi</title>
    <g id="页面-1" stroke="none" stroke-width="1" fill="none" fill-rule="evenodd">
        <g id="1" transform="translate(-1143.000000, -588.000000)" fill="#555555" fill-rule="nonzero">
            <g id="shujuyuanpeizhi" transform="translate(1143.000000, 588.125000)">
                <path d="M19.9848045,16.0990237 C19.9959721,16.1659693 19.9959721,16.2552301 19.973637,16.3444909 C19.9624694,16.4449093 19.9289667,16.5453278 19.8842965,16.6345886 C19.8396263,16.735007 19.794956,16.8242678 19.7391182,16.902371 C19.6832804,16.9804742 19.6162751,17.0362622 19.5492697,17.069735 C19.4822644,17.1032078 19.415259,17.125523 19.3705888,17.125523 C19.314751,17.125523 19.2589132,17.1143654 19.2030754,17.0920502 C19.1472376,17.069735 19.0690647,17.0585774 18.9908918,17.0474198 C18.9015513,17.0362622 18.8233784,17.0362622 18.7340379,17.0362622 C18.6446975,17.0474198 18.555357,17.0585774 18.4660165,17.0920502 C18.3766761,17.125523 18.2985032,17.1701534 18.2426654,17.237099 C18.1086547,17.3821478 18.0193142,17.5383543 17.9969791,17.7280335 C17.9746439,17.9065551 17.9969791,18.0850767 18.075152,18.2524407 C18.1309898,18.3640167 18.1198222,18.4755927 18.0528169,18.5983264 C18.0193142,18.6429568 17.9634764,18.6875872 17.8853035,18.7433752 C17.8071306,18.7880056 17.7289577,18.832636 17.6396172,18.8772664 C17.5502767,18.9218968 17.4609362,18.944212 17.3604282,18.9665272 C17.2599202,18.9888424 17.1817473,19 17.1035744,19 C17.0477366,19 17.0030663,18.9776848 16.9583961,18.944212 C16.9137259,18.8995816 16.8802232,18.8661088 16.8690556,18.8103208 L16.8578881,18.8103208 C16.7908827,18.6317992 16.6903747,18.4755927 16.5340289,18.3528591 C16.377683,18.2189679 16.2101697,18.1631799 16.0091536,18.1631799 C15.8193051,18.1631799 15.6406242,18.2301255 15.4842783,18.3528591 C15.3279325,18.4867503 15.2162569,18.6317992 15.1492516,18.7991632 C15.1157489,18.8661088 15.0822462,18.9218968 15.0152409,18.944212 C14.9594031,18.9776848 14.8923977,18.9888424 14.8253924,18.9888424 C14.7472195,18.9888424 14.657879,18.9776848 14.557371,18.944212 C14.4568629,18.9107392 14.3563549,18.8772664 14.2558469,18.832636 C14.1553388,18.7880056 14.0659984,18.7433752 13.9878255,18.6875872 C13.9096526,18.6317992 13.8426472,18.5760112 13.8091445,18.5202232 C13.7756418,18.4755927 13.7644743,18.4309623 13.7644743,18.3751743 C13.7644743,18.3193863 13.7868094,18.2412831 13.8314796,18.1520223 C13.898485,18.0181311 13.9208201,17.8730823 13.9096526,17.7057183 C13.898485,17.5383543 13.8203121,17.3821478 13.6863014,17.237099 C13.6081285,17.1478382 13.5076204,17.0920502 13.3959448,17.069735 C13.2842693,17.0474198 13.1725937,17.0362622 13.0720856,17.0362622 C12.9492425,17.0362622 12.8263993,17.069735 12.7035562,17.1032078 C12.6253833,17.125523 12.5472104,17.1143654 12.4578699,17.0808926 C12.3908646,17.0585774 12.3350268,17.0027894 12.279189,16.9246862 C12.2233512,16.846583 12.1786809,16.7461646 12.1340107,16.6457462 C12.0893405,16.5453278 12.0558378,16.4449093 12.0335027,16.3333333 C12.0111676,16.2329149 12,16.1436541 12.0111676,16.0767085 C12.0335027,15.9539749 12.0893405,15.8758717 12.1786809,15.8423989 C12.3461943,15.7754533 12.5025401,15.6638773 12.6365509,15.5076709 C12.7705616,15.3514644 12.8375669,15.1729428 12.8375669,14.9832636 C12.8375669,14.7824268 12.7705616,14.6039052 12.6365509,14.4588563 C12.5025401,14.3138075 12.3461943,14.2022315 12.1786809,14.1352859 C12.1228431,14.1241283 12.0893405,14.0794979 12.0558378,14.0125523 C12.0223351,13.9456067 12,13.8786611 12,13.8117155 C12,13.7336123 12.0111676,13.6555091 12.0335027,13.5662483 C12.0558378,13.4769874 12.0893405,13.3877266 12.1228431,13.2984658 C12.1563458,13.209205 12.2010161,13.1311018 12.2568539,13.0641562 C12.3015241,12.9972106 12.3573619,12.9414226 12.4131997,12.9079498 C12.4578699,12.874477 12.5025401,12.8633194 12.5472104,12.874477 C12.5918806,12.8856346 12.6365509,12.8967922 12.6923886,12.9079498 C12.859902,12.9748954 13.038583,12.9972106 13.2284315,12.9748954 C13.41828,12.9525802 13.5746258,12.8633194 13.7198041,12.7294282 C13.7868094,12.6624826 13.8426472,12.5732218 13.8649823,12.4728033 C13.898485,12.3723849 13.9208201,12.2719665 13.9208201,12.1715481 C13.9319877,12.0711297 13.9319877,11.9818689 13.9208201,11.9037657 C13.9096526,11.8256625 13.9096526,11.7698745 13.898485,11.7364017 C13.8873174,11.7029289 13.8761499,11.6582985 13.8649823,11.6136681 C13.8538148,11.5690377 13.8649823,11.5244073 13.8761499,11.4909344 C13.9096526,11.4128312 13.9766579,11.3458856 14.0659984,11.27894 C14.1553388,11.223152 14.2446793,11.167364 14.3563549,11.1338912 C14.4568629,11.0892608 14.557371,11.0669456 14.657879,11.0446304 C14.758387,11.0223152 14.8365599,11.0111576 14.8923977,11.0111576 C14.9705706,11.0111576 15.0264084,11.0334728 15.0710787,11.0892608 C15.1157489,11.1338912 15.138084,11.1896792 15.1604191,11.2343096 C15.2274245,11.390516 15.3279325,11.5244073 15.4731108,11.6359833 C15.618289,11.7475593 15.7858024,11.8145049 15.9756509,11.8145049 C16.176667,11.8145049 16.3553479,11.7587169 16.5116937,11.6471409 C16.6680396,11.5355649 16.7797152,11.390516 16.835553,11.223152 C16.8578881,11.1785216 16.8913907,11.1338912 16.9472285,11.0781032 C16.9918988,11.0334728 17.0477366,11 17.0924068,11 C17.1705797,11 17.2599202,11.0111576 17.3492607,11.0334728 C17.4386011,11.055788 17.5391092,11.0892608 17.6284496,11.1227336 C17.7177901,11.167364 17.8071306,11.2119944 17.8853035,11.27894 C17.9634764,11.3458856 18.0193142,11.4128312 18.075152,11.4797768 C18.1086547,11.5244073 18.1086547,11.5801953 18.0974871,11.6248257 C18.0863195,11.6806137 18.075152,11.7140865 18.0639844,11.7364017 C17.9858115,11.9037657 17.9634764,12.0711297 17.9969791,12.2608089 C18.0304817,12.4393305 18.1086547,12.6066946 18.2426654,12.7405858 C18.3766761,12.874477 18.5441894,12.9525802 18.7452055,12.9637378 C18.9462216,12.9748954 19.1360701,12.9414226 19.3035834,12.8633194 C19.3482537,12.8298466 19.4040915,12.818689 19.4710968,12.8298466 C19.5381022,12.8410042 19.59394,12.8633194 19.6386102,12.9079498 C19.7279507,12.986053 19.794956,13.1087866 19.8619614,13.2761506 C19.9289667,13.4435146 19.973637,13.5997211 19.9959721,13.7670851 C20.0071396,13.8675035 19.9959721,13.9344491 19.9513019,13.9902371 C19.9066316,14.0460251 19.8619614,14.0794979 19.8172911,14.1018131 C19.6386102,14.1687587 19.4934319,14.2691771 19.3594212,14.4365411 C19.2254105,14.6039052 19.1695727,14.7712692 19.1695727,14.972106 C19.1695727,15.1617852 19.2254105,15.3403068 19.3259186,15.4853556 C19.4375941,15.6304045 19.5716049,15.7308229 19.7391182,15.7977685 C19.7837885,15.8200837 19.8172911,15.8423989 19.8396263,15.8647141 C19.9177992,15.9539749 19.9624694,16.0209205 19.9848045,16.0990237 L19.9848045,16.0990237 Z M15.997986,16.8688982 C16.2548399,16.8688982 16.5005262,16.8242678 16.7238774,16.7238494 C16.9472285,16.623431 17.1482446,16.4895397 17.315758,16.3221757 C17.4832714,16.1548117 17.6172821,15.9539749 17.7177901,15.7308229 C17.8182981,15.5076709 17.8629684,15.2622036 17.8629684,15.0055788 C17.8629684,14.748954 17.8182981,14.5034868 17.7177901,14.2803347 C17.6172821,14.0571827 17.4832714,13.8563459 17.315758,13.6889819 C17.1482446,13.5216179 16.9472285,13.3877266 16.7238774,13.2873082 C16.5005262,13.1868898 16.2548399,13.1422594 15.997986,13.1422594 C15.7411322,13.1422594 15.4954459,13.1868898 15.2720947,13.2873082 C15.0487435,13.3877266 14.8477275,13.5216179 14.6802141,13.6889819 C14.5127007,13.8563459 14.37869,14.0571827 14.278182,14.2803347 C14.177674,14.5034868 14.1330037,14.748954 14.1330037,15.0055788 C14.1330037,15.2622036 14.177674,15.5076709 14.278182,15.7308229 C14.37869,15.9539749 14.5127007,16.1548117 14.6802141,16.3221757 C14.8477275,16.4895397 15.0487435,16.623431 15.2720947,16.7238494 C15.4954459,16.8242678 15.7411322,16.8688982 15.997986,16.8688982 Z" id="形状"></path>
                <path d="M9.48911597,13 C10.1101015,13 10.7201926,12.9791304 11.3193892,12.9478261 C12.1146865,11.4556522 13.72707,10.4330435 15.5900267,10.4330435 C16.6141081,10.4330435 17.5619282,10.746087 18.346331,11.2678261 C18.7712158,10.9547826 19,10.6208696 19,10.2765217 L19,7 C19,8.5026087 14.740257,9.72347826 9.50001045,9.72347826 C4.24886944,9.72347826 0,8.5026087 0,7 L0,10.2765217 C-0.0108735793,11.7791304 4.23797496,13 9.48911597,13 L9.48911597,13 Z" id="路径"></path>
                <path d="M9.5,7.86491333 C14.7511468,7.86491333 19,6.60609683 19,5.05678422 L19,2.80812911 C19,1.2588165 14.7402523,0 9.5,0 C4.24885321,0 0,1.2588165 0,2.80812911 L0,5.05678422 C0,6.60609683 4.24885321,7.86491333 9.5,7.86491333 Z M10.8073394,15.019725 C10.8073394,14.8798565 10.8182339,14.7292289 10.8291284,14.5893604 C10.3933486,14.6108787 9.94667431,14.6216378 9.5,14.6216378 C4.24885321,14.6216378 8.8817842e-16,13.3628213 8.8817842e-16,11.8135087 L8.8817842e-16,15.1918709 C8.8817842e-16,16.7411835 4.25974771,18 9.5,18 C10.2952982,18 11.0688073,17.9677227 11.7987385,17.9139271 C11.1777523,17.1069934 10.8073394,16.1063957 10.8073394,15.019725 Z" id="形状"></path>
            </g>
        </g>
    </g>
</svg>