<?xml version="1.0" encoding="UTF-8"?>
<svg width="20px" height="20px" viewBox="0 0 20 20" version="1.1" xmlns="http://www.w3.org/2000/svg" xmlns:xlink="http://www.w3.org/1999/xlink">
    <title>tiaoduqi-</title>
    <g id="页面-1" stroke="none" stroke-width="1" fill="none" fill-rule="evenodd">
        <g id="1" transform="translate(-1143.000000, -778.000000)" fill="#555555" fill-rule="nonzero">
            <g id="tiaoduqi-" transform="translate(1143.000000, 778.625000)">
                <path d="M15,15 C15,15.5 15.5,16 16,16 C16.5,16 17,15.5 17,15 C17,14.5 16.5,14 16,14 C15.375,14.125 15,14.5 15,15 Z M16.4685091,16.9409663 C15.3976312,17.2086858 14.3267532,16.5393871 14.0590337,15.4685091 C13.7913142,14.3976312 14.4606129,13.3267532 15.5314909,13.0590337 C16.6023688,12.7913142 17.6732468,13.4606129 17.9409663,14.5314909 C18.2086858,15.6023688 17.5393871,16.6732468 16.4685091,16.9409663 Z M19.1641791,15.1791045 L20,14.5820896 C20,14.3432836 20,14.1044776 19.880597,13.9850746 C19.880597,13.8656716 19.761194,13.7462687 19.761194,13.6268657 L18.8059701,13.5074627 C18.6865672,13.2686567 18.4477612,13.0298507 18.3283582,12.7910448 L18.5671642,11.8358209 C18.3283582,11.5970149 17.9701493,11.4776119 17.7313433,11.358209 L17.0149254,11.9552239 C16.7761194,11.8358209 16.4179104,11.8358209 16.1791045,11.8358209 L15.5820896,11 C15.3432836,11 15.2238806,11 14.9850746,11.119403 C14.8656716,11.119403 14.7462687,11.238806 14.6268657,11.238806 L14.5074627,12.1940299 C14.2686567,12.3134328 14.0298507,12.4328358 13.7910448,12.6716418 L12.8358209,12.4328358 C12.5970149,12.6716418 12.4776119,13.0298507 12.238806,13.2686567 L12.8358209,13.9850746 L12.8358209,14.8208955 L12,15.2985075 C12,15.5373134 12,15.7761194 12.119403,15.8955224 C12.119403,16.0149254 12.238806,16.1343284 12.238806,16.2537313 L13.1940299,16.3731343 C13.3134328,16.6119403 13.5522388,16.8507463 13.6716418,17.0895522 L13.4328358,18.1641791 C13.6716418,18.4029851 14.0298507,18.5223881 14.2686567,18.641791 L14.9850746,18.0447761 C15.2238806,18.1641791 15.5820896,18.1641791 15.8208955,18.1641791 L16.2985075,19 C16.5373134,19 16.6567164,19 16.8955224,18.880597 C17.0149254,18.880597 17.1343284,18.761194 17.2537313,18.761194 L17.3731343,17.8059701 C17.6119403,17.6865672 17.8507463,17.5671642 18.0895522,17.3283582 L19.0447761,17.5671642 C19.2835821,17.3283582 19.4029851,16.9701493 19.641791,16.7313433 L19.0447761,16.0149254 C19.1641791,15.6567164 19.1641791,15.4179104 19.1641791,15.1791045 Z M11.1775701,16.7412587 L11.0560748,16.3636364 C11.0560748,16.3636364 10.9345794,16.2377622 10.9345794,16.1118881 C10.9345794,15.8601399 10.8130841,15.7342657 10.8130841,15.4825175 L10.8130841,15.1048951 L11.5420561,14.6013986 L11.5420561,14.3496503 L11.0560748,13.5944056 L11.1775701,13.2167832 C11.2990654,12.965035 11.5420561,12.5874126 11.6635514,12.3356643 L11.9065421,12.0839161 L12.7570093,12.3356643 C12.8785047,12.3356643 12.8785047,12.2097902 13,12.2097902 L13,11.958042 C12.271028,11.2027972 11.2990654,10.6993007 10.3271028,10.3216783 C11.9065421,9.31468531 13,7.55244755 13,5.53846154 C13,2.51748252 10.5700935,0 7.65420561,0 C4.73831776,0.125874126 2.42990654,2.64335664 2.42990654,5.66433566 C2.42990654,7.67832168 3.52336449,9.56643357 5.22429907,10.4475524 C2.18691589,11.5804196 0,14.6013986 0,18 L12.0280374,18 L12.271028,17.1188811 L12.0280374,16.8671329 L11.1775701,16.7412587 Z" id="形状"></path>
            </g>
        </g>
    </g>
</svg>