<?xml version="1.0" encoding="UTF-8"?>
<svg width="20px" height="17px" viewBox="0 0 20 17" version="1.1" xmlns="http://www.w3.org/2000/svg" xmlns:xlink="http://www.w3.org/1999/xlink">
    <title>tongxunguanlijibeifen</title>
    <g id="页面-1" stroke="none" stroke-width="1" fill="none" fill-rule="evenodd">
        <g id="1" transform="translate(-1143.000000, -543.000000)" fill="#555555" fill-rule="nonzero">
            <g id="tongxunguanlijibeifen" transform="translate(1143.000000, 543.000000)">
                <path d="M19,4 C19.5522847,4 20,4.44771525 20,5 L20,16 C20,16.5522847 19.5522847,17 19,17 L1,17 C0.44771525,17 6.76353751e-17,16.5522847 0,16 L0,5 C-6.76353751e-17,4.44771525 0.44771525,4 1,4 L19,4 Z M17.5,12 L2.5,12 C2.22385763,12 2,12.2238576 2,12.5 C2,12.7761424 2.22385763,13 2.5,13 L2.5,13 L17.5,13 C17.7761424,13 18,12.7761424 18,12.5 C18,12.2238576 17.7761424,12 17.5,12 L17.5,12 Z M3,8 C2.44771525,8 2,8.44771525 2,9 C2,9.55228475 2.44771525,10 3,10 C3.55228475,10 4,9.55228475 4,9 C4,8.44771525 3.55228475,8 3,8 Z M7,8 C6.44771525,8 6,8.44771525 6,9 C6,9.55228475 6.44771525,10 7,10 C7.55228475,10 8,9.55228475 8,9 C8,8.44771525 7.55228475,8 7,8 Z M17.0487998,0 L18.9781707,2.63250001 C19.0073015,2.65862667 19.0257517,2.74664488 19.0214603,2.83901651 C19.017169,2.93138814 18.9914421,3 18.9610976,3 L1.11341464,3 C1.08268518,2.99952243 1.05687312,2.9288033 1.05318737,2.83499117 C1.04950163,2.74117903 1.06909409,2.65359223 1.09890244,2.63062501 L3.09183117,0 L17.0487998,0 Z" id="形状"></path>
            </g>
        </g>
    </g>
</svg>