<?xml version="1.0" encoding="UTF-8"?>
<svg width="20px" height="18px" viewBox="0 0 20 18" version="1.1" xmlns="http://www.w3.org/2000/svg" xmlns:xlink="http://www.w3.org/1999/xlink">
    <title>wode-xiaoxi</title>
    <g id="页面-1" stroke="none" stroke-width="1" fill="none" fill-rule="evenodd">
        <g id="1" transform="translate(-1143.000000, -920.000000)" fill="#555555" fill-rule="nonzero">
            <g id="wode-xiaoxi" transform="translate(1143.000000, 920.000000)">
                <path d="M17.9224,0 L1.98400001,0 C0.887999988,0 0,0.852260859 0,1.84382607 L0,13.8506087 C0,14.8429565 0.887999988,15.6952174 1.9936,15.6952174 L7.48400001,15.6952174 C7.48400001,15.6952174 7.63039999,15.8353044 7.82880001,16.095913 C7.8912,16.1561739 7.97519999,16.2367826 8.03760001,16.3565217 C8.03760001,16.3565217 8.184,16.5568696 8.24559998,16.6171304 C8.86159998,17.5484348 9.34239998,18 10.104,18 C10.8664,18 11.4088,17.5382609 12.0248,16.6171304 C12.5048,15.8853913 12.6408,15.6850435 12.6408,15.6850435 L18.0064,15.6850435 C19.1024,15.6850435 20,14.8327826 20,13.8404348 L20,1.84382607 C19.9064,0.792000003 19.0184,0 17.9224,0 Z M4.79199999,9.30052173 C4.18639998,9.30052173 3.696,8.8293913 3.696,8.24869566 C3.696,7.66721742 4.18639998,7.19608695 4.79199999,7.19608695 C5.3976,7.19608695 5.88800001,7.66721738 5.88800001,8.24869566 C5.88800001,8.8293913 5.40800002,9.30052173 4.79199999,9.30052173 L4.79199999,9.30052173 Z M9.94879998,9.30052173 C9.34319998,9.30052173 8.85279999,8.8293913 8.85279999,8.24869566 C8.85279999,7.66721742 9.34319998,7.19608695 9.94879998,7.19608695 C10.5544,7.19608695 11.0448,7.66721738 11.0448,8.24869566 C11.0448,8.8293913 10.5544,9.30052173 9.94879998,9.30052173 Z M15.0424,9.30052173 C14.4368,9.30052173 13.9464,8.8293913 13.9464,8.24869566 C13.9464,7.66721742 14.4368,7.19608695 15.0424,7.19608695 C15.648,7.19608695 16.1384,7.66721738 16.1384,8.24869566 C16.1384,8.8293913 15.648,9.30052173 15.0424,9.30052173 Z" id="形状"></path>
            </g>
        </g>
    </g>
</svg>