<?xml version="1.0" encoding="UTF-8"?>
<svg width="19px" height="19px" viewBox="0 0 19 19" version="1.1" xmlns="http://www.w3.org/2000/svg" xmlns:xlink="http://www.w3.org/1999/xlink">
    <title>编组 2</title>
    <g id="页面-1" stroke="none" stroke-width="1" fill="none" fill-rule="evenodd">
        <g id="1" transform="translate(-1556.000000, -730.000000)" fill="#D8D8D8">
            <g id="编组-2" transform="translate(1556.000000, 730.000000)">
                <rect id="矩形" opacity="0" x="0" y="0" width="19" height="19"></rect>
                <g id="编组">
                    <path d="M14,9.91304348 L14,19 L2,19 C0.895430501,19 3.6373762e-10,18.1045695 3.63737485e-10,17 L0,9.91304348 L14,9.91304348 Z M6.00704225,15.2826087 L2.66901408,15.2826087 C2.39287171,15.2826087 2.16901408,15.5064663 2.16901408,15.7826087 C2.16901408,16.0587511 2.39287171,16.2826087 2.66901408,16.2826087 L2.66901408,16.2826087 L6.00704225,16.2826087 C6.28318463,16.2826087 6.50704225,16.0587511 6.50704225,15.7826087 C6.50704225,15.5064663 6.28318463,15.2826087 6.00704225,15.2826087 L6.00704225,15.2826087 Z M14,1.44166279e-09 L14,9.08695652 L0,9.08695652 L3.63737485e-10,2 C3.63737361e-10,0.993268582 0.743828878,0.160267706 1.71188519,0.0205988157 L1.86652382,0.00438334944 L1.86666667,4 L2.84666668,3.46666667 C3.12666667,3.2888889 3.54666667,3.2888889 3.68666668,3.46666667 L4.66666667,4 L4.66666667,0 L14,1.44166279e-09 Z" id="形状结合"></path>
                    <path d="M17,0 L19,0 L19,0 L19,19 L17,19 C15.8954305,19 15,18.1045695 15,17 L15,2 C15,0.8954305 15.8954305,2.02906125e-16 17,0 Z" id="矩形备份-7" transform="translate(17.000000, 9.500000) scale(-1, 1) translate(-17.000000, -9.500000) "></path>
                </g>
            </g>
        </g>
    </g>
</svg>