<?xml version="1.0" encoding="UTF-8"?>
<svg width="20px" height="19px" viewBox="0 0 20 19" version="1.1" xmlns="http://www.w3.org/2000/svg" xmlns:xlink="http://www.w3.org/1999/xlink">
    <title>xiangmupeizhi</title>
    <g id="页面-1" stroke="none" stroke-width="1" fill="none" fill-rule="evenodd">
        <g id="1" transform="translate(-1143.000000, -208.000000)" fill="#555555" fill-rule="nonzero">
            <g id="xiangmupeizhi" transform="translate(1143.000000, 208.125000)">
                <path d="M10.4140081,2 L19,2 C19.5522813,2 20,2.44771695 20,3 L20,16.9999721 C20,17.2651942 19.8946497,17.5195553 19.7071113,17.7070974 C19.519573,17.8946396 19.2652142,18 19,18 L1,18 C0.447718709,18 0,17.5522809 0,17 L0,1 C0,0.447719093 0.447718709,0 1,0 L8.41399262,0 L10.4140081,2.00001717 L10.4140081,2 Z M6.59098985,10.8090032 L5.60002008,11.3809829 L6.59998919,13.1119854 L7.59099757,12.5400057 C7.98399431,12.9110065 8.46298685,13.1929988 8.99601403,13.3510087 L8.99601403,14.496011 L10.9949866,14.496011 L10.9949866,13.3500045 C11.5200893,13.1934599 12.0010281,12.9156436 12.3989796,12.5389821 L13.3899879,13.1110005 L14.3899957,11.3809829 L13.3989873,10.807999 C13.5256987,10.2747543 13.5256987,9.71923752 13.3989873,9.18599287 L14.3889915,8.61300892 L13.3899879,6.88301068 L12.398014,7.45500972 C12.0001581,7.07798983 11.5192043,6.79983132 10.9940017,6.64300244 L10.9940017,5.50000858 L8.99500981,5.50000858 L8.99500981,6.64398735 C8.46980537,6.80082185 7.98885146,7.07898707 7.59099757,7.45601394 L6.59998919,6.88301068 L5.60002008,8.61499805 L6.59098985,9.1870164 C6.46428145,9.72025488 6.46428145,10.2757647 6.59098985,10.8090032 L6.59098985,10.8090032 Z M9.99499822,11.4970088 C9.4464945,11.5168955 8.93092707,11.2356152 8.65077314,10.7636343 C8.37061922,10.2916534 8.37061922,9.70434693 8.65077314,9.23236603 C8.93092707,8.76038513 9.4464945,8.47910483 9.99499822,8.49899149 C10.8017409,8.5282409 11.4406422,9.19072676 11.4406422,9.99800261 C11.4406422,10.8052735 10.8017409,11.4677594 9.99499822,11.4970088 L9.99499822,11.4970088 Z" id="形状"></path>
            </g>
        </g>
    </g>
</svg>