<?xml version="1.0" encoding="UTF-8"?>
<svg width="20px" height="20px" viewBox="0 0 20 20" version="1.1" xmlns="http://www.w3.org/2000/svg" xmlns:xlink="http://www.w3.org/1999/xlink">
    <title>xiangmuku-2</title>
    <g id="页面-1" stroke="none" stroke-width="1" fill="none" fill-rule="evenodd">
        <g id="1" transform="translate(-1143.000000, -160.000000)" fill="#555555" fill-rule="nonzero">
            <g id="xiangmuku-2" transform="translate(1143.000000, 160.000000)">
                <path d="M15.3833807,10.7642919 L11.8051612,10.7642919 C11.230305,10.7642919 10.7642919,11.2303049 10.7642919,11.8051611 L10.7642919,15.3821459 C10.7642919,17.9325163 12.8317756,20 15.382146,20 C17.9325163,20 20,17.9325163 20,15.3821459 C20,12.8317756 17.9325163,10.7642919 15.382146,10.7642919 L15.3833807,10.7642919 Z M11.8051612,9.23570811 L15.382146,9.23570811 C17.9325163,9.23570811 20,7.16822443 20,4.61785406 C20,2.06748368 17.9325163,0 15.382146,0 C12.8317756,0 10.7642919,2.06748368 10.7642919,4.61785406 L10.7642919,8.19483887 C10.7642919,8.77021855 11.2297815,9.23570811 11.8051612,9.23570811 L11.8051612,9.23570811 Z M8.19483891,10.7642919 L4.61661939,10.7642919 C2.06640987,10.7649738 -0.000454402538,12.8327593 7.49360387e-08,15.3829689 C0.000454702332,17.9331785 2.06805598,20.000227 4.61826558,19.9999998 C7.16847518,19.9997726 9.23570815,17.9323556 9.23570815,15.3821459 L9.23570815,11.8051611 C9.23570815,11.2303049 8.76969512,10.7642919 8.19483891,10.7642919 L8.19483891,10.7642919 Z M4.61661939,9.23570811 L8.19483891,9.23570811 C8.4708946,9.23570811 8.73564376,9.12604542 8.93084461,8.93084457 C9.12604546,8.73564372 9.23570815,8.47089456 9.23570815,8.19483887 L9.23570815,4.61785406 C9.23570815,2.06748368 7.16822448,0 4.61785411,0 C2.06748375,0 7.6542352e-08,2.06748368 7.6542352e-08,4.61785406 C7.6542352e-08,7.16822443 2.06748375,9.23570811 4.61785411,9.23570811 L4.61661939,9.23570811 Z" id="形状"></path>
            </g>
        </g>
    </g>
</svg>