<?xml version="1.0" encoding="UTF-8"?>
<svg width="22px" height="18px" viewBox="0 0 22 18" version="1.1" xmlns="http://www.w3.org/2000/svg" xmlns:xlink="http://www.w3.org/1999/xlink">
    <title>yichangxinxi备份</title>
    <g id="页面-1" stroke="none" stroke-width="1" fill="none" fill-rule="evenodd">
        <g id="1" transform="translate(-1555.000000, -353.000000)" fill="#555555" fill-rule="nonzero">
            <g id="yichangxinxi备份" transform="translate(1555.000000, 353.000000)">
                <path d="M18.0240701,10 C20.231589,10.0125697 22.0133147,11.8164007 22,14.0254466 C21.9865353,16.2112864 20.2065949,18.0115473 17.9776524,18 C15.7638849,17.9874486 13.9946562,16.1854027 14,13.9977778 C13.9973342,11.7905169 15.7978055,9.98668589 18.0240701,10 Z M9.99979286,0 C10.4666775,0 10.9144315,0.184279195 11.2445159,0.512282545 L11.2445159,0.512282545 L16.3224072,9.14796425 C14.298659,9.6557397 12.5790699,11.4117592 12.5790699,13.5 C12.5790699,14.7435045 12.8647097,16.0277137 13.5972687,17.0005862 L0.515283651,17 C-0.171761217,16.3169481 -0.171761217,15.2100931 0.515283651,14.5270412 L0.515283651,14.5270412 L8.75506984,0.512282545 C9.08515425,0.184279195 9.53290824,0 9.99979286,0 Z M10.2339289,12.4128999 C9.688507,12.4128999 9.24635521,12.8521234 9.24635521,13.393933 C9.24635521,13.9357427 9.688507,14.3749661 10.2339289,14.3749661 L10.2339289,14.3749661 C10.4960231,14.3759601 10.7473681,14.2724652 10.9326029,14.0882708 C11.1178377,13.9040764 11.2217681,13.6542914 11.221503,13.393933 C11.221503,12.8521234 10.7793507,12.4128999 10.2339289,12.4128999 Z M10.7302588,4.66711645 C10.420138,4.48486859 10.0347121,4.48486859 9.7245914,4.66711645 C9.41447066,4.84936432 9.22888394,5.18492984 9.24035173,5.54268632 L9.24035173,5.54268632 L9.24035173,10.1148771 C9.25732105,10.6442629 9.69423972,11.0646875 10.2274251,11.0646875 C10.7606105,11.0646875 11.1975291,10.6442629 11.2144984,10.1148771 L11.2144984,10.1148771 L11.2144984,5.54268632 C11.2259662,5.18492984 11.0403795,4.84936432 10.7302588,4.66711645 Z M17.7099917,14.2880798 C17.7090826,14.2817152 17.7072644,14.2762599 17.7072644,14.2708046 L17.7072644,14.227162 L17.7072644,12.3814429 C17.7072644,12.3496201 17.7054463,12.3168882 17.6999918,12.2859746 C17.6690831,12.1177687 17.5227211,12.0086622 17.3745411,12.0004792 C17.2163611,11.9922962 17.0690901,12.0895829 17.0181816,12.2414228 C17.0027272,12.2877931 17,12.3350726 17,12.3832613 L17,14.6172179 C17,14.6335838 17,14.6490406 17.0009091,14.6654066 C17.0081817,14.8172465 17.1163623,14.9509021 17.2627242,14.9881801 C17.3027237,14.9981816 17.3427233,15 17.3836319,15 L19.617242,15 C19.6390599,15 19.6608779,14.9990908 19.6826958,14.9981816 C19.6926957,14.9972723 19.7026956,14.9963631 19.7126954,14.9945447 C19.9281475,14.9499928 20.0226918,14.7481457 19.9954194,14.5908504 C19.9690561,14.4408289 19.8499666,14.3199025 19.6990592,14.2989904 C19.6690596,14.2944443 19.6381509,14.2935351 19.6081512,14.2935351 L17.7281733,14.2935351 C17.7227188,14.2908074 17.7172643,14.288989 17.7099917,14.2880798 L17.7099917,14.2880798 Z" id="形状"></path>
            </g>
        </g>
    </g>
</svg>