<?xml version="1.0" encoding="UTF-8"?>
<svg width="20px" height="17px" viewBox="0 0 20 17" version="1.1" xmlns="http://www.w3.org/2000/svg" xmlns:xlink="http://www.w3.org/1999/xlink">
    <title>yichangxinxi</title>
    <g id="页面-1" stroke="none" stroke-width="1" fill="none" fill-rule="evenodd">
        <g id="1" transform="translate(-1556.000000, -258.000000)" fill="#555555" fill-rule="nonzero">
            <g id="yichangxinxi" transform="translate(1556.000000, 258.000000)">
                <path d="M19.4843021,14.5270412 L11.2445159,0.512282545 C10.9144315,0.184279195 10.4666775,0 9.99979286,0 C9.53290824,0 9.08515425,0.184279195 8.75506984,0.512282545 L0.515283651,14.5270412 C-0.171761217,15.2100931 -0.171761217,16.3169481 0.515283651,17 L19.4843021,17 C19.8144922,16.6721017 20,16.2273131 20,15.7635206 C20,15.2997281 19.8144922,14.8549395 19.4843021,14.5270412 Z M9.24035173,5.54268632 C9.22888394,5.18492984 9.41447066,4.84936432 9.7245914,4.66711645 C10.0347121,4.48486859 10.420138,4.48486859 10.7302588,4.66711645 C11.0403795,4.84936432 11.2259662,5.18492984 11.2144984,5.54268632 L11.2144984,10.1148771 C11.1975291,10.6442629 10.7606105,11.0646875 10.2274251,11.0646875 C9.69423972,11.0646875 9.25732105,10.6442629 9.24035173,10.1148771 L9.24035173,5.54268632 Z M10.2339289,14.3749661 C9.688507,14.3749661 9.24635521,13.9357427 9.24635521,13.393933 C9.24635521,12.8521234 9.688507,12.4128999 10.2339289,12.4128999 C10.7793507,12.4128999 11.221503,12.8521234 11.221503,13.393933 C11.2217681,13.6542914 11.1178377,13.9040764 10.9326029,14.0882708 C10.7473681,14.2724652 10.4960231,14.3759601 10.2339289,14.3759601 L10.2339289,14.3749661 Z" id="形状"></path>
            </g>
        </g>
    </g>
</svg>