<?xml version="1.0" encoding="UTF-8"?>
<svg width="19px" height="20px" viewBox="0 0 19 20" version="1.1" xmlns="http://www.w3.org/2000/svg" xmlns:xlink="http://www.w3.org/1999/xlink">
    <title>yonghuguanli</title>
    <g id="页面-1" stroke="none" stroke-width="1" fill="none" fill-rule="evenodd">
        <g id="1" transform="translate(-1144.000000, -872.000000)" fill="#555555" fill-rule="nonzero">
            <g id="yonghuguanli" transform="translate(1144.000000, 872.875000)">
                <path d="M5.79228572,0 C6.1368237,0.0186887625 6.47331269,0.111257949 6.77892857,0.271428571 C7.0830465,0.421856963 7.35108621,0.636196146 7.56471428,0.89978572 C8.42761415,1.91945238 9.03342943,2.52428572 9.38216012,2.71428573 L16.2857143,2.71428573 C17.4914851,2.74931346 17.6374735,2.80879598 18.2105867,3.1609896 C18.6614596,3.58897662 18.9368525,4.10034279 19,4.71878572 L19,16.5693571 C18.9977609,17.910306 17.9116617,18.997012 16.5707143,19 L2.4292857,19 C1.087719,18.9985029 0.000747799454,17.9109245 0,16.5693571 L0,2.09380837 C0.00133186786,0.89978572 0.620456444,0.00149586522 1.9614938,0 L5.79228572,0 Z M7.57153581,7.34376601 C6.7226091,7.74835121 6.18360711,8.6080695 6.1884128,9.54987315 C6.202655,10.4175484 6.6678373,11.2148773 7.41548433,11.653091 C6.16801324,12.1025487 5.2551248,13.1852525 5.02136107,14.4925686 C5.00835554,14.5299979 5.00115837,14.5692044 5,14.6088202 L5,14.6382171 C4.99855572,14.7729355 5.07496743,14.8963563 5.19608539,14.9549024 C5.32679518,15.0150325 12.6772204,15.0150325 12.8039289,14.9549024 C12.9245931,14.8958521 13.0008061,14.7727522 13,14.6382171 L13,14.6088202 C13,14.5812066 12.9959723,14.5537407 12.9879896,14.5273105 C12.7667168,13.2038825 11.8482961,12.1038414 10.5871975,11.6517547 C11.334653,11.2133493 11.799766,10.416139 11.814269,9.54853692 C11.8179842,8.6070038 11.2785938,7.74801545 10.4298122,7.34376601 C9.53197784,6.88541133 8.4693702,6.88541133 7.57153581,7.34376601 Z" id="形状结合"></path>
            </g>
        </g>
    </g>
</svg>