<?xml version="1.0" encoding="UTF-8"?>
<svg width="20px" height="20px" viewBox="0 0 20 20" version="1.1" xmlns="http://www.w3.org/2000/svg" xmlns:xlink="http://www.w3.org/1999/xlink">
    <title>业务接口参数</title>
    <g id="页面-1" stroke="none" stroke-width="1" fill="none" fill-rule="evenodd">
        <g id="1" transform="translate(-1556.000000, -546.000000)" fill-rule="nonzero">
            <g id="业务接口参数" transform="translate(1556.000000, 546.000000)">
                <rect id="矩形" fill="#000000" opacity="0" x="0" y="0" width="20" height="20"></rect>
                <path d="M15.1195158,13.7536926 L14.7161951,13.3503714 L19.7634458,8.30311447 C20.1286805,7.9379379 20.0638367,7.28055367 19.6183285,6.8350449 L13.1649241,0.381730228 C12.7193183,-0.0637785434 12.0620911,-0.128720089 11.6968564,0.236515072 L6.64960568,5.28367437 L6.246285,4.88035319 C5.80067913,4.43480536 5.13423321,4.37908258 4.75757271,4.75570449 L1.00665131,8.50657194 C0.753330766,8.7598928 0.695908839,9.14436628 0.820869891,9.5045233 L0.818174576,9.50173033 L1.68735506,14.6825813 L0.334131165,16.0358069 C-0.111377055,16.4814133 -0.111377055,17.2036805 0.334131165,17.6491893 L2.35083223,19.6657952 C2.79634045,20.1114016 3.51864579,20.1114016 3.96415401,19.6657952 L5.31737791,18.3126673 L10.4982225,19.1818098 L10.4952928,19.1788801 C10.8554494,19.3040757 11.24002,19.246556 11.4933406,18.9931375 L15.2442229,15.2423677 C15.6208834,14.8656091 15.565024,14.1992014 15.1195158,13.7536926 Z M12.9578185,5.87357965 C12.7893031,6.04214012 12.5159268,6.04214012 12.347306,5.87357965 L11.1263865,4.65259654 C10.9578712,4.48397284 10.9578712,4.21069707 11.1263865,4.0421366 L12.0421025,3.12646777 C12.2107232,2.95784408 12.4838888,2.95784408 12.6526149,3.12646777 L13.8735344,4.34740873 C14.0421552,4.51596919 14.0421552,4.78924497 13.8735344,4.95786867 L12.9578185,5.87357965 Z M15.9578534,8.87357854 C15.7893373,9.04214049 15.5159598,9.04214049 15.3473383,8.87357854 L14.126308,7.65262686 C13.9578973,7.48400169 13.9578973,7.21072351 14.126308,7.04209833 L15.0421334,6.12642146 C15.2107549,5.95785951 15.4840271,5.95785951 15.6526485,6.12642146 L16.8735734,7.34737314 C17.0420895,7.51593508 17.0421949,7.78927649 16.8735734,7.95783844 L15.9578534,8.87357854 Z" id="形状" fill="#555555"></path>
            </g>
        </g>
    </g>
</svg>