<?xml version="1.0" encoding="UTF-8"?>
<svg width="18px" height="18px" viewBox="0 0 18 18" version="1.1" xmlns="http://www.w3.org/2000/svg" xmlns:xlink="http://www.w3.org/1999/xlink">
    <title>任务</title>
    <g id="页面-1" stroke="none" stroke-width="1" fill="none" fill-rule="evenodd">
        <g id="1" transform="translate(-1557.000000, -449.000000)" fill-rule="nonzero">
            <g id="任务" transform="translate(1557.000000, 449.000000)">
                <rect id="矩形" fill="#000000" opacity="0" x="0" y="0" width="18" height="18"></rect>
                <path d="M15.8593621,18 L3.15511067,18 C2.50458575,17.983621 1.98898977,17.4456732 2.00017871,16.795 L2.00017871,3.59500001 C1.98898976,2.94432681 2.50458574,2.40637895 3.15511067,2.38999999 L3.73007678,2.38999999 L3.73007678,4.195 C3.71884576,4.84377695 4.2314533,5.38093216 4.88000902,5.4 L14.1194646,5.4 C14.7699895,5.38362104 15.2855855,4.8456732 15.2743965,4.195 L15.2743965,2.38999999 L15.8493627,2.38999999 C16.4979184,2.40906784 17.0105259,2.94622306 16.9992949,3.59500001 L16.9992949,16.795 C17.0100743,17.1048663 16.8968959,17.4062471 16.6848187,17.6324136 C16.4727414,17.8585801 16.1792626,17.9908725 15.8693615,18 L15.8593621,18 Z M13.2795141,9.835 C12.9381061,9.49491263 12.3859949,9.49491263 12.0445869,9.835 L8.95976863,12.9 L7.49985465,11.47 C7.33757642,11.3072588 7.11720762,11.2157935 6.88739074,11.2157935 C6.65757386,11.2157935 6.43720505,11.3072588 6.27492683,11.47 C5.94496022,11.7999918 5.94496022,12.3350082 6.27492683,12.665 L8.33480545,14.7 C8.49708368,14.8627412 8.71745248,14.9542065 8.94726936,14.9542065 C9.17708624,14.9542065 9.39745504,14.8627412 9.55973327,14.7 L13.264515,11.035 C13.5950558,10.7032938 13.5950558,10.1667062 13.264515,9.835 L13.2795141,9.835 Z M12.3895665,4.195 L6.6249062,4.195 C5.9783266,4.17864952 5.46430946,3.64679959 5.46992788,3 L5.46992788,2.38999999 C7.77983816,0.63 7.80483668,0.599999994 8.40980104,0 L10.6996661,0 C11.2646328,0.560000004 11.2496337,0.63 13.5394988,2.38999999 L13.5394988,3 C13.55915,3.6443929 13.0538532,4.18325884 12.4095653,4.205 L12.3895665,4.195 Z M9.49973681,1.20000001 C8.83526018,1.17036301 8.27245292,1.68478347 8.24235624,2.34927852 C8.21225956,3.01377357 8.72625876,3.57697108 9.39069359,3.60753097 C10.0551284,3.63809086 10.6186496,3.12445261 10.6496691,2.46000001 L10.6496691,2.405 C10.6609001,1.75622306 10.1482925,1.21906785 9.49973681,1.20000001 Z" id="形状" fill="#555555"></path>
            </g>
        </g>
    </g>
</svg>