<?xml version="1.0" encoding="UTF-8"?>
<svg width="19px" height="19px" viewBox="0 0 19 19" version="1.1" xmlns="http://www.w3.org/2000/svg" xmlns:xlink="http://www.w3.org/1999/xlink">
    <title>储存管理</title>
    <g id="页面-1" stroke="none" stroke-width="1" fill="none" fill-rule="evenodd">
        <g id="1" transform="translate(-1556.000000, -497.000000)" fill-rule="nonzero">
            <g id="储存管理" transform="translate(1556.000000, 497.000000)">
                <rect id="矩形" fill="#000000" opacity="0" x="0" y="0" width="19" height="19"></rect>
                <path d="M18,3.54994512 C18,1.58287596 14.3970944,0 9.99612591,0 C5.59515739,0 2,1.58287596 2,3.54994512 L2,4.01097695 C2.44487565,4.97258471 3.29579324,5.68986048 4.3244552,5.97036223 C4.34911456,5.97036223 4.37276393,5.9800768 4.39020072,5.99736885 C4.40763752,6.0146609 4.4174334,6.03811396 4.4174334,6.06256861 C4.5104116,6.16245884 4.69636802,6.16245884 4.78934624,6.2546652 C4.88232445,6.34687156 4.98305083,6.34687156 5.16900725,6.34687156 C5.35496367,6.34687156 5.26198545,6.34687156 5.35496367,6.43907794 C5.44794189,6.53128431 5.64164649,6.53128429 5.73462469,6.53128429 L5.95157385,6.53128429 C6.13753026,6.62349065 6.33123486,6.62349065 6.61016948,6.72338089 C6.8891041,6.82327113 6.9898305,6.81558725 7.17578692,6.81558727 L7.26876513,6.81558727 C7.45472155,6.81558727 7.64842615,6.90779362 7.83438257,6.90779362 L8.02033899,6.90779362 C8.21363224,6.89249535 8.40777287,6.92414396 8.58595642,7 L9.99612591,7 C13.955448,7 17.2484262,5.78594951 18,4.1031833 L18,3.54994512 Z" id="路径" fill="#555555"></path>
                <path d="M9.99612591,11 C14.0484262,11 17.3414044,9.62903226 18,7.86290323 L18,5.0967742 C17.2251816,6.86290324 13.9554479,8.13709677 9.99612591,8.13709677 C6.03680388,8.13709677 2.65859563,6.76612903 2,5 L2,7.93548387 C2.77481839,9.70161291 6.04455205,11 9.99612591,11 Z" id="路径" fill="#555555"></path>
                <path d="M9.99612591,15 C14.0484262,15 17.3414044,13.6216216 18,11.8540541 L18,9 C17.3414044,10.7675676 13.9554479,12.1459459 9.99612591,12.145946 C6.03680388,12.145946 2.77481839,10.8648649 2,9.09729731 L2,11.9513514 C2.77481839,13.727027 6.04455206,15 9.99612591,15 Z" id="路径" fill="#555555"></path>
                <path d="M9.99612591,15.7966102 C6.04455205,15.7966102 2.77481839,14.6779661 2,13.094431 L2,15.5641646 C2,17.4164649 5.57966103,19 9.99612591,19 C14.4125908,19 18,17.503632 18,15.5641646 L18,13 C17.3414044,14.590799 14.0484262,15.7966102 9.99612591,15.7966102 Z" id="路径" fill="#555555"></path>
            </g>
        </g>
    </g>
</svg>