<?xml version="1.0" encoding="UTF-8"?>
<svg width="16px" height="16px" viewBox="0 0 16 16" version="1.1" xmlns="http://www.w3.org/2000/svg" xmlns:xlink="http://www.w3.org/1999/xlink">
    <title>菜单</title>
    <g id="页面-1" stroke="none" stroke-width="1" fill="none" fill-rule="evenodd">
        <g id="1" transform="translate(-1558.000000, -595.000000)" fill-rule="nonzero">
            <g id="菜单" transform="translate(1558.000000, 595.000000)">
                <rect id="矩形" fill="#000000" opacity="0" x="0" y="0" width="16" height="16"></rect>
                <path d="M14.6666667,8.66666667 C15.0202887,8.66666667 15.3594272,8.80714246 15.6094757,9.05719096 C15.8595242,9.30723947 16,9.64637801 16,10 L16,14.6666667 C16,15.4030463 15.4030463,16 14.6666667,16 L10,16 C9.26362034,16 8.66666667,15.4030463 8.66666667,14.6666667 L8.66666667,10 C8.66666667,9.26362034 9.26362034,8.66666667 10,8.66666667 L14.6666667,8.66666667 Z M6,8.66666667 C6.35362199,8.66666667 6.69276053,8.80714246 6.94280904,9.05719096 C7.19285754,9.30723947 7.33333333,9.64637801 7.33333333,10 L7.33333333,14.6666667 C7.33333333,15.4030463 6.73637966,16 6,16 L1.33333333,16 C0.596953665,16 0,15.4030463 0,14.6666667 L0,10 C0,9.64637801 0.140475787,9.30723947 0.39052429,9.05719096 C0.640572794,8.80714246 0.979711343,8.66666667 1.33333333,8.66666667 L6,8.66666667 Z M14.6666667,0 C15.4030463,0 16,0.596953665 16,1.33333333 L16,6 C16,6.73637966 15.4030463,7.33333333 14.6666667,7.33333333 L10,7.33333333 C9.26362034,7.33333333 8.66666667,6.73637966 8.66666667,6 L8.66666667,1.33333333 C8.66666667,0.979711343 8.80714246,0.640572794 9.05719096,0.39052429 C9.30723947,0.140475787 9.64637801,0 10,0 L14.6666667,0 Z M3.66666667,0 C4.97669751,-8.55176623e-05 6.18725251,0.698758497 6.84229262,1.83326423 C7.49733273,2.96776997 7.49733273,4.36556336 6.84229262,5.5000691 C6.18725251,6.63457483 4.97669751,7.33341885 3.66666667,7.33333333 C1.64171606,7.33320114 0.000239356779,5.69161728 0.000239356779,3.66666666 C0.000239356779,1.64171605 1.64171606,0.000132186997 3.66666667,0 Z" id="形状" fill="#555555"></path>
            </g>
        </g>
    </g>
</svg>