<?xml version="1.0" encoding="UTF-8"?>
<svg width="20px" height="20px" viewBox="0 0 20 20" version="1.1" xmlns="http://www.w3.org/2000/svg" xmlns:xlink="http://www.w3.org/1999/xlink">
    <title>角色切换</title>
    <g id="页面-1" stroke="none" stroke-width="1" fill="none" fill-rule="evenodd">
        <g id="1" transform="translate(-1556.000000, -641.000000)" fill-rule="nonzero">
            <g id="角色切换" transform="translate(1556.000000, 641.000000)">
                <rect id="矩形" fill="#000000" opacity="0" x="0" y="0" width="20" height="20"></rect>
                <path d="M16.0360033,11.9646474 C15.641609,11.525607 15.2026504,11.1254401 14.7324968,10.7641465 L14.7458661,10.7412798 C14.0774012,10.2267794 13.3108948,9.8288991 12.5243345,9.54992556 C13.3888824,8.90965841 14.0707165,8.05901778 14.4896212,7.05517037 C14.4428287,7.4141773 14.7592354,6.32343649 14.7592354,5.23040901 C14.7592354,3.77380126 14.1553888,2.3537802 13.1103553,1.37737281 C12.0653219,0.400965412 10.6169814,-0.120394976 9.1976076,0.0236651316 C8.29963645,0.121991871 7.48188108,0.43297877 6.77776475,0.90860579 C6.49032485,1.06638591 5.9756069,1.56945295 5.54110473,2.15941339 C4.67878504,3.35076761 4.40471444,4.90341543 4.68546968,6.33258316 C4.93948634,7.63598413 5.74610062,8.79989833 6.80004691,9.55678556 C4.29776006,10.4623062 2.32133224,12.5386011 1.4523279,15.111103 C1.164888,15.952597 1,16.9267177 1,17.9419985 C1,18.2918587 1.26961417,18.5982723 1.6038466,18.634859 L9.27559517,18.634859 C9.34689809,14.9373162 12.2881435,11.960074 15.908995,11.960074 C15.9513311,11.960074 15.991439,11.9623607 16.0360033,11.9646474 Z M12.4708573,16.0943704 L19.2780579,16.0943704 C19.3025683,16.0943704 19.3270787,16.0920838 19.3515891,16.0897971 L19.3538173,16.0897971 C19.3783277,16.0875104 19.4006098,16.0829371 19.4251202,16.0783637 L19.4295766,16.0783637 C19.4518588,16.0737904 19.474141,16.0669304 19.4964231,16.0600704 C19.4986513,16.0600704 19.5008796,16.0577837 19.5031078,16.0577837 C19.5231617,16.0509237 19.5432157,16.0417771 19.5632696,16.034917 C19.5654978,16.0326304 19.5699543,16.0326304 19.5721825,16.0303437 L19.6256597,16.0029037 L19.639029,15.9960437 C19.6546265,15.986897 19.670224,15.9754637 19.6858215,15.9640303 C19.6902779,15.959457 19.6947344,15.9571703 19.6991908,15.952597 C19.7125601,15.9411636 19.7281576,15.9297303 19.7415269,15.918297 C19.7459833,15.9137236 19.7504398,15.911437 19.7548962,15.9068636 L19.7950041,15.8657036 L19.8016888,15.8588436 L19.8061452,15.8542702 C19.8195145,15.8405502 19.8306556,15.8245436 19.8417966,15.8085369 C19.8440249,15.8039635 19.8462531,15.8016769 19.8484813,15.7971035 C19.8596224,15.7810969 19.8707635,15.7650902 19.8796763,15.7467968 C19.8819045,15.7445102 19.8841328,15.7399368 19.886361,15.7376502 C19.8952738,15.7193568 19.9041867,15.7033501 19.9130996,15.6850568 C19.9153278,15.6827701 19.9153278,15.6804835 19.917556,15.6759101 C19.9264689,15.6576168 19.9331535,15.6393234 19.9398382,15.6187434 C19.9398382,15.6164567 19.9420664,15.6141701 19.9420664,15.6118834 C19.948751,15.5935901 19.9532075,15.57301 19.9576639,15.5547167 C19.9576639,15.55243 19.9598921,15.5501434 19.9598921,15.54557 C19.9643485,15.5272767 19.9665768,15.5089833 19.968805,15.4884033 C19.968805,15.48383 19.9710332,15.4815433 19.9710332,15.47697 C19.9732614,15.4586766 19.9754896,15.4403833 19.9754896,15.4243766 L19.9754896,15.4083699 L19.9754896,15.3900766 C19.9754896,15.3786432 19.9732614,15.3672099 19.9732614,15.3557765 L19.9732614,15.3397699 C19.9710332,15.3214765 19.9710332,15.3031832 19.9665768,15.2848898 C19.9665768,15.2803165 19.9643485,15.2757432 19.9643485,15.2711698 C19.9621203,15.2528765 19.9576639,15.2345831 19.9532075,15.2162898 C19.9532075,15.2117164 19.9509792,15.2071431 19.9509792,15.2048564 C19.9465228,15.1865631 19.9420664,15.1682697 19.9353817,15.1522631 C19.9331535,15.1476897 19.9331535,15.1431164 19.9309253,15.138543 C19.9242406,15.1225364 19.917556,15.104243 19.9108713,15.0882363 C19.9086431,15.083663 19.9064149,15.0790897 19.9041867,15.0722297 C19.8975021,15.056223 19.8885892,15.042503 19.8796763,15.028783 C19.8774481,15.0242096 19.8729917,15.0173496 19.8707635,15.0127763 L19.8440249,14.9716163 C19.8395684,14.9670429 19.835112,14.9601829 19.8328838,14.9556096 C19.8239709,14.9418896 19.8128298,14.9304562 19.8016888,14.9167362 L19.7883195,14.9030162 C19.7771784,14.8892962 19.7638091,14.8778629 19.7504398,14.8664295 L19.7437551,14.8595695 L17.9210742,13.2063083 C17.6358626,12.9479148 17.1991322,12.9753548 16.9473437,13.2680483 C16.6955553,13.5607419 16.7222939,14.0089289 17.0075056,14.2673224 L17.4642899,14.6812094 L12.4708573,14.6812094 C12.0898323,14.6812094 11.7801102,14.9990563 11.7801102,15.3900766 C11.7823385,15.7788102 12.0898323,16.0943704 12.4708573,16.0943704 L12.4708573,16.0943704 Z M19.309253,16.917571 L12.4998241,16.917571 C12.4909112,16.917571 12.4842266,16.917571 12.4753137,16.9198577 C12.4664008,16.9198577 12.4552598,16.9198577 12.4463469,16.9221444 C12.4329776,16.9221444 12.4196083,16.924431 12.4040108,16.9267177 C12.3950979,16.9290044 12.3884133,16.9290044 12.3795004,16.931291 C12.3661311,16.9335777 12.3505336,16.9358644 12.3371643,16.9404377 C12.3304797,16.9427244 12.3215668,16.9450111 12.3148821,16.9472977 C12.3015128,16.9518711 12.2859153,16.9564444 12.272546,16.9610177 C12.2658614,16.9633044 12.2569485,16.9655911 12.2502639,16.9701644 C12.2368946,16.9747377 12.2235253,16.9815978 12.210156,16.9861711 C12.2034713,16.9907444 12.1945585,16.9930311 12.1878738,16.9976044 C12.1767327,17.0044644 12.1633634,17.0113244 12.1522224,17.0181844 C12.1433095,17.0227578 12.1366248,17.0273311 12.1299402,17.0319045 C12.1187991,17.0387645 12.107658,17.0479111 12.0965169,17.0547711 C12.0898323,17.0593445 12.0809194,17.0662045 12.0742348,17.0707778 C12.0630937,17.0799245 12.0519526,17.0890712 12.0430398,17.0982178 C12.0363551,17.1027912 12.0296705,17.1096512 12.025214,17.1165112 C12.0140729,17.1279445 12.0029319,17.1393779 11.994019,17.1508112 C11.9917908,17.1553845 11.9873343,17.1576712 11.9851061,17.1622446 C11.9828779,17.1645312 11.9828779,17.1668179 11.9806497,17.1691046 C11.9695086,17.1805379 11.9605958,17.1942579 11.9516829,17.2079779 C11.9472265,17.2148379 11.94277,17.2194113 11.9383136,17.2262713 C11.9294007,17.2399913 11.9204879,17.2514246 11.9138032,17.2651446 C11.9093468,17.2720046 11.9048903,17.2788646 11.9026621,17.2857246 L11.8826082,17.3268847 C11.8781518,17.3337447 11.8759235,17.3406047 11.8714671,17.3497514 C11.8647825,17.3634714 11.860326,17.3771914 11.8558696,17.3909114 C11.8536414,17.3977714 11.8491849,17.4069181 11.8469567,17.4137781 C11.8425003,17.4274981 11.8402721,17.4412181 11.8358156,17.4549381 L11.829131,17.4823781 C11.8269028,17.4960981 11.8246746,17.5075315 11.8224463,17.5212515 C11.8202181,17.5303982 11.8179899,17.5418315 11.8179899,17.5509782 C11.8157617,17.5624115 11.8157617,17.5761315 11.8157617,17.5875649 C11.8157617,17.5989982 11.8135335,17.6104316 11.8135335,17.6218649 L11.8135335,17.6584516 C11.8135335,17.6698849 11.8135335,17.6813183 11.8157617,17.6927516 C11.8157617,17.704185 11.8179899,17.717905 11.8202181,17.7293383 C11.8224463,17.7407717 11.8224463,17.7499183 11.8246746,17.7613517 C11.8269028,17.7750717 11.829131,17.786505 11.8313592,17.7979384 C11.8335874,17.807085 11.8358156,17.8185184 11.8380439,17.827665 C11.8425003,17.8390984 11.8447285,17.8528184 11.8491849,17.8642517 C11.8536414,17.8733984 11.8558696,17.8848318 11.860326,17.8939784 C11.8647825,17.9054118 11.8692389,17.9168451 11.8736953,17.9259918 C11.8781518,17.9374251 11.8826082,17.9465718 11.8892928,17.9580051 C11.8937493,17.9671518 11.8982057,17.9762985 11.9048903,17.9854452 C11.911575,17.9968785 11.9182596,18.0060252 11.9249443,18.0174585 C11.9294007,18.0266052 11.9360854,18.0334652 11.9405418,18.0426119 C11.9472265,18.0540452 11.9561393,18.0631919 11.962824,18.0746252 C11.9695086,18.0837719 11.9761933,18.0906319 11.9828779,18.0997786 C11.9917908,18.1089253 11.9984754,18.1180719 12.0073883,18.1272186 C12.0140729,18.1363653 12.0229858,18.1432253 12.0318987,18.152372 L12.0474962,18.1683786 L13.8701771,19.8216399 C13.9971854,19.9359733 14.1598452,20 14.3269614,20 C14.5252727,20 14.7124428,19.9131066 14.8439076,19.7598998 C15.095696,19.4672063 15.0689574,19.0190193 14.7837457,18.7606257 L14.3247332,18.3353054 L19.309253,18.3353054 C19.6902779,18.3353054 20,18.0174585 20,17.6264382 C20,17.2354179 19.6902779,16.917571 19.309253,16.917571 L19.309253,16.917571 Z" id="形状" fill="#555555"></path>
            </g>
        </g>
    </g>
</svg>