<?xml version="1.0" encoding="UTF-8"?>
<svg width="19px" height="19px" viewBox="0 0 19 19" version="1.1" xmlns="http://www.w3.org/2000/svg" xmlns:xlink="http://www.w3.org/1999/xlink">
    <title>角色管理</title>
    <g id="页面-1" stroke="none" stroke-width="1" fill="none" fill-rule="evenodd">
        <g id="1" transform="translate(-1556.000000, -691.000000)" fill-rule="nonzero">
            <g id="角色管理" transform="translate(1556.000000, 691.000000)">
                <rect id="矩形" fill="#000000" opacity="0" x="0" y="0" width="19" height="19"></rect>
                <path d="M14.7680145,9.9142279 C13.8430098,10.5304194 12.736329,10.8883973 11.5453409,10.8883973 C10.3579151,10.8883973 9.25479659,10.5327668 8.33335417,9.92127009 C5.83738517,11.1278317 4.11324292,13.6923621 4.11324292,16.6606446 C4.11324292,19.8014607 19,19.7580339 19,16.6606446 C18.9988126,13.6853199 17.2711081,11.1172685 14.7680145,9.9142279 L14.7680145,9.9142279 L14.7680145,9.9142279 Z M6.54152866,5.02694899 C6.54152866,2.25115297 8.7810137,0 11.5453409,0 C14.3096682,0 16.5491532,2.24997926 16.5491532,5.02694899 C16.5491532,7.802745 14.3096682,10.0515506 11.5453409,10.0515506 C8.78101368,10.0515506 6.54152866,7.80274502 6.54152866,5.02694899 L6.54152866,5.02694899 L6.54152866,5.02694899 L6.54152866,5.02694899 Z M3.23098556,16.9212056 C3.23098556,17.036228 3.24879695,17.1453819 3.2832323,17.2533622 C1.40353728,16.9517217 0,16.3566568 0,15.4599514 C0,12.8907263 1.49140679,10.6712632 3.65252171,9.62667185 C4.40653708,10.1278409 5.30423098,10.4306551 6.271983,10.4623449 C4.41484906,11.9963683 3.23098556,14.3202906 3.23098556,16.9212056 L3.23098556,16.9212056 L3.23098556,16.9212056 Z M5.70914318,5.02694899 C5.70914318,3.75113915 6.1152428,2.57039886 6.80513718,1.60796641 C6.68401975,1.59740312 6.56408975,1.59270834 6.44297232,1.59270834 C4.16786451,1.59270834 2.32379226,3.44480395 2.32379226,5.72999417 C2.32379226,8.01518439 4.16667709,9.86728 6.4417849,9.86728 C6.95356542,9.86728 7.44397227,9.77338415 7.89519406,9.60085053 C6.56290231,8.52691674 5.70914318,6.87787091 5.70914318,5.02694899 L5.70914318,5.02694899 Z" id="形状" fill="#555555"></path>
            </g>
        </g>
    </g>
</svg>